<svg xmlns="http://www.w3.org/2000/svg" xmlns:xlink="http://www.w3.org/1999/xlink" width="700px" height="250px" style="shape-rendering:geometricPrecision; text-rendering:geometricPrecision; image-rendering:optimizeQuality; fill-rule:evenodd; clip-rule:evenodd"><g><path style="opacity:0.74" fill="#f9fafc" d="M 33.5,52.5 C 45.5185,52.1677 57.5185,52.501 69.5,53.5C 74.6951,64.4216 79.6951,75.4216 84.5,86.5C 81.5493,98.473 78.216,110.306 74.5,122C 82.1883,122.169 89.8549,122.669 97.5,123.5C 102.402,133.299 106.735,143.299 110.5,153.5C 87.8333,153.5 65.1667,153.5 42.5,153.5C 44.8952,141.744 43.8952,141.577 39.5,153C 34.5111,153.499 29.5111,153.666 24.5,153.5C 25.4959,148.175 26.4959,142.842 27.5,137.5C 30.8984,137.82 34.2317,137.487 37.5,136.5C 34.9135,135.52 32.2469,135.187 29.5,135.5C 29.467,132.164 30.1336,128.997 31.5,126C 31.1667,125.833 30.8333,125.667 30.5,125.5C 28.4245,128.075 27.0912,131.075 26.5,134.5C 21.2079,135.495 15.8746,135.828 10.5,135.5C 11.4218,130.4 12.7551,125.4 14.5,120.5C 17.4465,119.679 20.4465,119.179 23.5,119C 24.713,116.313 25.3797,113.48 25.5,110.5C 28.8333,110.5 32.1667,110.5 35.5,110.5C 35.8073,107.101 36.8073,103.934 38.5,101C 41.0991,100.231 43.5991,100.398 46,101.5C 46.6924,100.975 47.1924,100.308 47.5,99.5C 44.6281,98.2175 41.7947,98.2175 39,99.5C 40.3424,91.7938 42.1757,84.1272 44.5,76.5C 40.8049,68.4477 37.1383,60.4477 33.5,52.5 Z"></path></g><g><path style="opacity:0.766" fill="#eff0f5" d="M 72.5,52.5 C 94.5101,52.167 116.51,52.5003 138.5,53.5C 142.833,59.5 147.167,65.5 151.5,71.5C 145.512,92.4501 139.679,113.45 134,134.5C 127.654,140.673 120.82,146.339 113.5,151.5C 107.234,140.13 101.9,128.297 97.5,116C 100.039,105.174 103.039,94.5072 106.5,84C 99.4764,83.8311 92.4764,83.3311 85.5,82.5C 80.5979,72.701 76.2646,62.701 72.5,52.5 Z"></path></g><g><path style="opacity:0.783" fill="#f5f6f8" d="M 158.5,52.5 C 171.5,52.5 184.5,52.5 197.5,52.5C 196.283,60.3677 194.283,68.0343 191.5,75.5C 177.612,80.4066 163.779,85.4066 150,90.5C 152.502,77.8176 155.336,65.151 158.5,52.5 Z"></path></g><g><path style="opacity:0.788" fill="#f4f6fa" d="M 222.5,52.5 C 249.841,52.1669 277.175,52.5002 304.5,53.5C 302.321,61.2185 299.987,68.8852 297.5,76.5C 292.975,80.1924 288.308,83.6924 283.5,87C 266.167,87.3333 248.833,87.6667 231.5,88C 228.74,97.4493 226.074,106.949 223.5,116.5C 227.5,116.833 231.5,117.167 235.5,117.5C 240.009,117.639 244.342,117.139 248.5,116C 241.476,115.831 234.476,115.331 227.5,114.5C 229.234,108.797 231.068,103.13 233,97.5C 236.5,94.6667 240,91.8333 243.5,89C 260.497,88.5001 277.497,88.3334 294.5,88.5C 291.455,103.679 287.622,118.679 283,133.5C 275.439,140.028 267.606,146.195 259.5,152C 238.5,152.667 217.5,152.667 196.5,152C 191.622,145.078 186.622,138.245 181.5,131.5C 186.91,112.028 192.243,92.5276 197.5,73C 205.712,65.9486 214.045,59.1152 222.5,52.5 Z"></path></g><g><path style="opacity:0.8" fill="#f7f8fa" d="M 308.5,52.5 C 339.167,52.5 369.833,52.5 400.5,52.5C 401.292,67.4983 402.125,82.4983 403,97.5C 413.377,82.5789 423.877,67.7456 434.5,53C 448.845,52.1672 463.178,52.3339 477.5,53.5C 468.5,86.1667 459.5,118.833 450.5,151.5C 438.185,152.499 425.851,152.832 413.5,152.5C 414.512,147.472 415.345,142.472 416,137.5C 412.5,142.333 409,147.167 405.5,152C 395.5,152.667 385.5,152.667 375.5,152C 374.336,146.531 373.169,141.031 372,135.5C 370.802,140.926 369.302,146.259 367.5,151.5C 355.518,152.499 343.518,152.832 331.5,152.5C 338.438,124.584 345.771,96.7507 353.5,69C 351.131,65.098 348.631,61.2646 346,57.5C 344.884,63.4635 343.384,69.2968 341.5,75C 327.298,81.0109 312.965,85.8442 298.5,89.5C 302.304,77.2851 305.637,64.9518 308.5,52.5 Z"></path></g><g><path style="opacity:0.8" fill="#f2f5f9" d="M 500.5,52.5 C 521.169,52.3334 541.836,52.5 562.5,53C 567.211,59.5892 572.045,66.0892 577,72.5C 572.802,92.2888 567.802,111.955 562,131.5C 554.376,138.908 546.209,145.741 537.5,152C 516.833,152.667 496.167,152.667 475.5,152C 470.622,145.078 465.622,138.245 460.5,131.5C 465.91,112.028 471.243,92.5276 476.5,73C 484.671,66.3255 492.671,59.4922 500.5,52.5 Z M 503.5,115.5 C 504.837,107.31 507.17,99.4763 510.5,92C 511.672,91.5814 512.672,90.9147 513.5,90C 520.833,89.3333 528.167,89.3333 535.5,90C 533.273,96.7369 531.273,103.57 529.5,110.5C 527.836,112.995 525.67,114.995 523,116.5C 516.59,115.522 510.09,115.189 503.5,115.5 Z"></path></g><g><path style="opacity:0.796" fill="#f2f5f9" d="M 569.5,52.5 C 588.17,52.3334 606.836,52.5001 625.5,53C 630.914,64.2388 635.748,75.7388 640,87.5C 643.168,76.161 646.335,64.8277 649.5,53.5C 662.149,52.5009 674.816,52.1676 687.5,52.5C 678.628,85.7834 669.961,119.117 661.5,152.5C 648.496,152.667 635.496,152.5 622.5,152C 617.476,140.598 612.643,129.098 608,117.5C 605.005,129.145 602.172,140.812 599.5,152.5C 586.483,152.832 573.483,152.499 560.5,151.5C 568.066,125.072 575.399,98.5719 582.5,72C 578.524,65.2015 574.191,58.7015 569.5,52.5 Z"></path></g><g><path style="opacity:1" fill="#a4a9c0" d="M 67.5,56.5 C 57.985,56.1731 48.6517,56.5064 39.5,57.5C 38.9569,57.44 38.6236,57.1067 38.5,56.5C 48.3254,55.1775 57.992,55.1775 67.5,56.5 Z"></path></g><g><path style="opacity:1" fill="#686b8e" d="M 161.5,56.5 C 171.987,55.5056 182.654,55.1722 193.5,55.5C 193.768,57.099 193.434,58.4324 192.5,59.5C 192.5,58.5 192.5,57.5 192.5,56.5C 182.167,56.5 171.833,56.5 161.5,56.5 Z"></path></g><g><path style="opacity:1" fill="#63678a" d="M 397.5,59.5 C 396.596,58.791 396.263,57.791 396.5,56.5C 380.991,56.1705 365.658,56.5038 350.5,57.5C 349.957,57.44 349.624,57.1067 349.5,56.5C 365.486,55.5006 381.486,55.1672 397.5,55.5C 397.5,56.8333 397.5,58.1667 397.5,59.5 Z"></path></g><g><path style="opacity:1" fill="#676a8d" d="M 652.5,56.5 C 662.674,55.1768 673.007,55.1768 683.5,56.5C 683.376,57.1067 683.043,57.44 682.5,57.5C 672.681,56.506 662.681,56.1726 652.5,56.5 Z"></path></g><g><path style="opacity:1" fill="#121a51" d="M 397.5,59.5 C 397.5,62.8333 397.5,66.1667 397.5,69.5C 397.665,72.8499 397.498,76.1832 397,79.5C 396.752,74.4366 396.085,69.4366 395,64.5C 382.909,65.3228 370.742,65.8228 358.5,66C 358.833,66.3333 359.167,66.6667 359.5,67C 358.809,68.0674 358.309,69.2341 358,70.5C 357.536,69.9056 357.369,69.2389 357.5,68.5C 355.588,64.5833 353.255,60.9166 350.5,57.5C 365.658,56.5038 380.991,56.1705 396.5,56.5C 396.263,57.791 396.596,58.791 397.5,59.5 Z"></path></g><g><path style="opacity:1" fill="#1d2156" d="M 629.5,71.5 C 629.565,71.9382 629.399,72.2716 629,72.5C 628.104,69.8596 626.604,67.693 624.5,66C 612.167,65.3333 599.833,65.3333 587.5,66C 588.01,69.3058 587.677,71.1391 586.5,71.5C 583.435,66.3852 580.102,61.3852 576.5,56.5C 592.156,55.3338 607.823,55.1671 623.5,56C 625.8,61.0676 627.8,66.2343 629.5,71.5 Z"></path></g><g><path style="opacity:1" fill="#141c52" d="M 652.5,56.5 C 662.681,56.1726 672.681,56.506 682.5,57.5C 681.167,62.5 679.833,67.5 678.5,72.5C 677.566,71.4324 677.232,70.099 677.5,68.5C 667.903,69.0974 658.57,68.4308 649.5,66.5C 650.21,62.9752 651.21,59.6418 652.5,56.5 Z"></path></g><g><path style="opacity:1" fill="#1c235a" d="M 311.5,55.5 C 321.833,55.5 332.167,55.5 342.5,55.5C 341.606,61.1965 340.606,66.8632 339.5,72.5C 327.719,76.0938 316.052,80.0938 304.5,84.5C 306.003,74.815 308.336,65.1483 311.5,55.5 Z"></path></g><g><path style="opacity:1" fill="#161e56" d="M 145.5,77.5 C 144.566,76.4324 144.232,75.099 144.5,73.5C 125.5,73.5 106.5,73.5 87.5,73.5C 87.4208,74.9305 87.7542,76.2638 88.5,77.5C 95.6553,78.1667 102.655,78.8334 109.5,79.5C 102.137,79.8306 94.8032,79.4973 87.5,78.5C 84.2952,71.2579 80.9618,64.0912 77.5,57C 97.1667,56.3333 116.833,56.3333 136.5,57C 140.362,61.2286 143.862,65.7286 147,70.5C 147.135,72.9216 146.635,75.2549 145.5,77.5 Z"></path></g><g><path style="opacity:1" fill="#182058" d="M 161.5,56.5 C 171.833,56.5 182.167,56.5 192.5,56.5C 192.5,57.5 192.5,58.5 192.5,59.5C 191.323,63.8726 189.99,68.2059 188.5,72.5C 177.192,76.213 166.025,80.213 155,84.5C 156.211,74.9871 158.378,65.6538 161.5,56.5 Z"></path></g><g><path style="opacity:1" fill="#1b2258" d="M 467.5,74.5 C 466.732,73.7375 466.232,72.7375 466,71.5C 459.74,72.8118 453.24,73.4785 446.5,73.5C 439.334,73.4257 432.334,72.7591 425.5,71.5C 428.947,66.2126 432.614,61.0459 436.5,56C 448.514,55.1674 460.514,55.3341 472.5,56.5C 470.829,62.5122 469.162,68.5122 467.5,74.5 Z"></path></g><g><path style="opacity:1" fill="#19225a" d="M 67.5,56.5 C 71.5,65.5 75.5,74.5 79.5,83.5C 68.9999,84.8222 58.4999,84.8222 48,83.5C 46.9125,85.9316 46.4125,85.5983 46.5,82.5C 47.3287,79.5314 47.4954,76.5314 47,73.5C 44.7593,68.0199 42.2593,62.6865 39.5,57.5C 48.6517,56.5064 57.985,56.1731 67.5,56.5 Z"></path></g><g><path style="opacity:1" fill="#1b2259" d="M 292.5,75.5 C 264.057,73.6865 235.39,72.8532 206.5,73C 207.696,72.3457 207.696,71.8457 206.5,71.5C 205.167,72.5 203.833,73.5 202.5,74.5C 201.893,74.3764 201.56,74.0431 201.5,73.5C 208.958,67.8805 216.292,62.0472 223.5,56C 248.84,55.1668 274.173,55.3335 299.5,56.5C 297.844,62.1226 296.344,67.7893 295,73.5C 294.292,74.3805 293.458,75.0472 292.5,75.5 Z"></path></g><g><path style="opacity:1" fill="#1b2259" d="M 571.5,81.5 C 571.567,78.1746 571.067,74.8413 570,71.5C 556.055,72.8246 541.888,73.4912 527.5,73.5C 513.5,73.3333 499.5,73.1667 485.5,73C 486.167,72.3333 486.833,71.6667 487.5,71C 486.748,70.3292 486.414,69.4959 486.5,68.5C 491.671,64.1663 497.005,59.9996 502.5,56C 521.833,55.3333 541.167,55.3333 560.5,56C 564.667,61.5 568.833,67 573,72.5C 572.995,75.536 572.495,78.536 571.5,81.5 Z"></path></g><g><path style="opacity:1" fill="#1c2761" d="M 486.5,68.5 C 486.414,69.4959 486.748,70.3292 487.5,71C 486.833,71.6667 486.167,72.3333 485.5,73C 499.5,73.1667 513.5,73.3333 527.5,73.5C 541.888,73.4912 556.055,72.8246 570,71.5C 571.067,74.8413 571.567,78.1746 571.5,81.5C 571.737,82.791 571.404,83.791 570.5,84.5C 540.511,82.8373 510.178,81.8373 479.5,81.5C 478.873,80.5832 478.539,79.5832 478.5,78.5C 479.547,73.9503 482.214,70.6169 486.5,68.5 Z"></path></g><g><path style="opacity:1" fill="#1c2862" d="M 649.5,66.5 C 658.57,68.4308 667.903,69.0974 677.5,68.5C 677.232,70.099 677.566,71.4324 678.5,72.5C 677.011,77.4565 675.678,82.4565 674.5,87.5C 664.999,86.8456 655.499,86.179 646,85.5C 645.53,88.0723 644.697,89.739 643.5,90.5C 644.627,82.1701 646.627,74.1701 649.5,66.5 Z"></path></g><g><path style="opacity:1" fill="#1c2660" d="M 397.5,69.5 C 398.485,73.6344 398.818,77.9677 398.5,82.5C 399.11,87.3167 398.777,89.3167 397.5,88.5C 397.5,87.1667 397.5,85.8333 397.5,84.5C 382.921,84.1763 368.421,84.5096 354,85.5C 353.517,84.552 353.351,83.552 353.5,82.5C 354.467,77.6197 355.801,72.953 357.5,68.5C 357.369,69.2389 357.536,69.9056 358,70.5C 358.309,69.2341 358.809,68.0674 359.5,67C 359.167,66.6667 358.833,66.3333 358.5,66C 370.742,65.8228 382.909,65.3228 395,64.5C 396.085,69.4366 396.752,74.4366 397,79.5C 397.498,76.1832 397.665,72.8499 397.5,69.5 Z"></path></g><g><path style="opacity:1" fill="#1c265f" d="M 629.5,71.5 C 632.065,75.8435 634.065,80.5102 635.5,85.5C 635.565,85.9382 635.399,86.2716 635,86.5C 634.5,85.5 634,84.5 633.5,83.5C 625.333,83.1667 617.167,82.8333 609,82.5C 600.434,82.516 592.101,83.1827 584,84.5C 583.517,83.552 583.351,82.552 583.5,81.5C 583.899,77.8835 584.899,74.5502 586.5,71.5C 587.677,71.1391 588.01,69.3058 587.5,66C 599.833,65.3333 612.167,65.3333 624.5,66C 626.604,67.693 628.104,69.8596 629,72.5C 629.399,72.2716 629.565,71.9382 629.5,71.5 Z"></path></g><g><path style="opacity:1" fill="#1c2760" d="M 145.5,77.5 C 144.833,80.1667 144.167,82.8333 143.5,85.5C 142.596,84.791 142.263,83.791 142.5,82.5C 132.145,82.1681 121.812,82.5014 111.5,83.5C 110.902,84.7946 110.402,86.1279 110,87.5C 109.517,86.552 109.351,85.552 109.5,84.5C 110.562,82.7659 110.562,81.0992 109.5,79.5C 102.655,78.8334 95.6553,78.1667 88.5,77.5C 87.7542,76.2638 87.4208,74.9305 87.5,73.5C 106.5,73.5 125.5,73.5 144.5,73.5C 144.232,75.099 144.566,76.4324 145.5,77.5 Z"></path></g><g><path style="opacity:0.772" fill="#f7f9fb" d="M 191.5,77.5 C 192.097,77.7352 192.43,78.2352 192.5,79C 185.107,103.407 178.107,127.907 171.5,152.5C 158.5,152.5 145.5,152.5 132.5,152.5C 137.698,132.712 143.364,113.045 149.5,93.5C 163.487,87.9515 177.487,82.6182 191.5,77.5 Z"></path></g><g><path style="opacity:0.766" fill="#f2f5f9" d="M 340.5,77.5 C 341.376,77.3691 342.043,77.7025 342.5,78.5C 334.682,102.953 327.682,127.619 321.5,152.5C 308.15,152.833 294.817,152.499 281.5,151.5C 287.64,132.276 293.474,112.942 299,93.5C 312.91,88.2541 326.744,82.9208 340.5,77.5 Z"></path></g><g><path style="opacity:1" fill="#1c2964" d="M 425.5,71.5 C 432.334,72.7591 439.334,73.4257 446.5,73.5C 453.24,73.4785 459.74,72.8118 466,71.5C 466.232,72.7375 466.732,73.7375 467.5,74.5C 466.459,79.5814 465.125,84.5814 463.5,89.5C 462.883,87.6792 462.716,85.6792 463,83.5C 448.333,84.8333 433.667,84.8333 419,83.5C 417.265,86.3623 415.098,88.6956 412.5,90.5C 416.599,83.9559 420.932,77.6226 425.5,71.5 Z"></path></g><g><path style="opacity:1" fill="#212c66" d="M 292.5,75.5 C 288.902,78.3133 285.235,81.1467 281.5,84C 264.167,84.3333 246.833,84.6667 229.5,85C 228.956,85.7172 228.289,86.2172 227.5,86.5C 227.565,86.0618 227.399,85.7284 227,85.5C 217.911,86.3192 208.744,86.8192 199.5,87C 198.118,91.7055 197.451,91.5388 197.5,86.5C 198.09,81.8305 199.423,77.4972 201.5,73.5C 201.56,74.0431 201.893,74.3764 202.5,74.5C 203.833,73.5 205.167,72.5 206.5,71.5C 207.696,71.8457 207.696,72.3457 206.5,73C 235.39,72.8532 264.057,73.6865 292.5,75.5 Z"></path></g><g><path style="opacity:1" fill="#1a2e6c" d="M 478.5,78.5 C 478.539,79.5832 478.873,80.5832 479.5,81.5C 510.178,81.8373 540.511,82.8373 570.5,84.5C 570.634,86.2915 570.301,87.9582 569.5,89.5C 560.095,87.5666 550.428,86.8999 540.5,87.5C 540.167,91.5 539.833,91.5 539.5,87.5C 535.386,86.1739 530.886,85.5073 526,85.5C 521.5,85.6667 517,85.8333 512.5,86C 511.154,87.6692 509.487,88.8358 507.5,89.5C 506.262,89.19 506.262,88.69 507.5,88C 496.651,86.9364 485.985,87.4364 475.5,89.5C 476.134,85.6273 477.134,81.9606 478.5,78.5 Z"></path></g><g><path style="opacity:0.755" fill="#f5f7fa" d="M 539.5,87.5 C 538.388,89.5994 537.721,91.9327 537.5,94.5C 536.055,97.9365 535.055,101.603 534.5,105.5C 533.25,108.006 532.584,110.673 532.5,113.5C 530.343,115.412 528.009,117.079 525.5,118.5C 516.435,119.136 507.769,118.47 499.5,116.5C 500.919,112.985 501.586,109.319 501.5,105.5C 502.458,103.698 503.125,101.698 503.5,99.5C 503.862,95.7408 505.195,92.4075 507.5,89.5C 509.487,88.8358 511.154,87.6692 512.5,86C 517,85.8333 521.5,85.6667 526,85.5C 530.886,85.5073 535.386,86.1739 539.5,87.5 Z M 503.5,115.5 C 510.09,115.189 516.59,115.522 523,116.5C 525.67,114.995 527.836,112.995 529.5,110.5C 531.273,103.57 533.273,96.7369 535.5,90C 528.167,89.3333 520.833,89.3333 513.5,90C 512.672,90.9147 511.672,91.5814 510.5,92C 507.17,99.4763 504.837,107.31 503.5,115.5 Z"></path></g><g><path style="opacity:1" fill="#183575" d="M 353.5,82.5 C 353.351,83.552 353.517,84.552 354,85.5C 368.421,84.5096 382.921,84.1763 397.5,84.5C 397.5,85.8333 397.5,87.1667 397.5,88.5C 382.065,89.4606 366.732,89.7939 351.5,89.5C 351.927,86.9902 352.593,84.6568 353.5,82.5 Z"></path></g><g><path style="opacity:1" fill="#173779" d="M 143.5,85.5 C 142.669,88.659 141.669,91.659 140.5,94.5C 129.993,93.1765 119.326,93.1765 108.5,94.5C 107.902,95.7946 107.402,97.1279 107,98.5C 106.517,97.552 106.351,96.552 106.5,95.5C 107.368,91.6857 108.368,88.019 109.5,84.5C 109.351,85.552 109.517,86.552 110,87.5C 110.402,86.1279 110.902,84.7946 111.5,83.5C 121.812,82.5014 132.145,82.1681 142.5,82.5C 142.263,83.791 142.596,84.791 143.5,85.5 Z"></path></g><g><path style="opacity:1" fill="#16397b" d="M 583.5,81.5 C 583.351,82.552 583.517,83.552 584,84.5C 592.101,83.1827 600.434,82.516 609,82.5C 617.167,82.8333 625.333,83.1667 633.5,83.5C 634,84.5 634.5,85.5 635,86.5C 635.399,86.2716 635.565,85.9382 635.5,85.5C 637.204,88.2558 638.537,91.2558 639.5,94.5C 639.631,95.2389 639.464,95.9056 639,96.5C 638.333,95.1667 637.667,93.8333 637,92.5C 618.91,93.4924 600.743,93.8257 582.5,93.5C 582.5,90.8333 582.5,88.1667 582.5,85.5C 582.232,83.901 582.566,82.5676 583.5,81.5 Z"></path></g><g><path style="opacity:1" fill="#18397c" d="M 46.5,82.5 C 46.4125,85.5983 46.9125,85.9316 48,83.5C 58.4999,84.8222 68.9999,84.8222 79.5,83.5C 80.7966,87.3665 80.4632,91.0331 78.5,94.5C 78.719,93.325 78.3857,92.325 77.5,91.5C 67.8462,93.2625 58.0129,94.2625 48,94.5C 46.2933,94.4915 44.7933,94.1582 43.5,93.5C 44.3678,89.6857 45.3678,86.019 46.5,82.5 Z"></path></g><g><path style="opacity:1" fill="#173a7d" d="M 227.5,86.5 C 226.808,90.8911 225.808,95.2245 224.5,99.5C 223.755,97.3285 223.588,94.9952 224,92.5C 214.874,93.4568 205.874,93.7902 197,93.5C 196.517,92.552 196.351,91.552 196.5,90.5C 196.232,88.901 196.566,87.5676 197.5,86.5C 197.451,91.5388 198.118,91.7055 199.5,87C 208.744,86.8192 217.911,86.3192 227,85.5C 227.399,85.7284 227.565,86.0618 227.5,86.5 Z"></path></g><g><path style="opacity:1" fill="#17397b" d="M 463.5,89.5 C 462.878,93.2829 461.878,96.9495 460.5,100.5C 459.583,98.3382 459.583,96.0048 460.5,93.5C 444.426,94.1422 428.593,93.4755 413,91.5C 412.385,93.1161 411.385,94.4495 410,95.5C 409.601,95.2716 409.435,94.9382 409.5,94.5C 410.026,92.7697 411.026,91.4363 412.5,90.5C 415.098,88.6956 417.265,86.3623 419,83.5C 433.667,84.8333 448.333,84.8333 463,83.5C 462.716,85.6792 462.883,87.6792 463.5,89.5 Z"></path></g><g><path style="opacity:1" fill="#15397d" d="M 674.5,87.5 C 673.833,89.8333 673.167,92.1667 672.5,94.5C 671.778,94.0825 671.278,93.4158 671,92.5C 661.485,92.8431 652.152,93.8431 643,95.5C 642.517,94.552 642.351,93.552 642.5,92.5C 642.328,91.5084 642.662,90.8417 643.5,90.5C 644.697,89.739 645.53,88.0723 646,85.5C 655.499,86.179 664.999,86.8456 674.5,87.5 Z"></path></g><g><path style="opacity:1" fill="#194187" d="M 539.5,87.5 C 539.833,91.5 540.167,91.5 540.5,87.5C 550.428,86.8999 560.095,87.5666 569.5,89.5C 568.489,92.9404 567.489,96.2737 566.5,99.5C 566.631,98.7611 566.464,98.0944 566,97.5C 556.583,98.4851 547.083,98.8184 537.5,98.5C 537.5,97.1667 537.5,95.8333 537.5,94.5C 537.721,91.9327 538.388,89.5994 539.5,87.5 Z"></path></g><g><path style="opacity:1" fill="#173f85" d="M 507.5,89.5 C 505.195,92.4075 503.862,95.7408 503.5,99.5C 502.71,98.3915 502.21,97.0581 502,95.5C 493.226,96.1538 484.392,96.8205 475.5,97.5C 474.279,101.339 473.612,101.339 473.5,97.5C 473.56,94.6592 474.226,91.9925 475.5,89.5C 485.985,87.4364 496.651,86.9364 507.5,88C 506.262,88.69 506.262,89.19 507.5,89.5 Z"></path></g><g><path style="opacity:1" fill="#1a4188" d="M 182.5,99.5 C 172.91,98.6922 163.244,98.1922 153.5,98C 152.748,97.3292 152.414,96.4959 152.5,95.5C 163.341,91.3622 174.341,87.3622 185.5,83.5C 186.167,83.6667 186.833,83.8333 187.5,84C 186.018,89.2693 184.351,94.4359 182.5,99.5 Z"></path></g><g><path style="opacity:1" fill="#1b4b96" d="M 196.5,90.5 C 196.351,91.552 196.517,92.552 197,93.5C 205.874,93.7902 214.874,93.4568 224,92.5C 223.588,94.9952 223.755,97.3285 224.5,99.5C 224.371,101.216 224.038,102.883 223.5,104.5C 213.249,105.475 202.915,105.808 192.5,105.5C 193.522,100.303 194.855,95.3033 196.5,90.5 Z"></path></g><g><path style="opacity:1" fill="#264c93" d="M 287.5,103.5 C 286.71,102.391 286.21,101.058 286,99.5C 269.53,100.813 253.03,100.813 236.5,99.5C 238.72,96.713 241.386,94.3797 244.5,92.5C 259.833,91.1667 275.167,91.1667 290.5,92.5C 289.292,96.1223 288.292,99.789 287.5,103.5 Z"></path></g><g><path style="opacity:1" fill="#1b4790" d="M 330.5,105.5 C 319.986,105.828 309.653,105.494 299.5,104.5C 299.807,101.101 300.807,97.9345 302.5,95C 313.609,90.4639 324.942,86.6305 336.5,83.5C 334.501,90.8311 332.501,98.1645 330.5,105.5 Z"></path></g><g><path style="opacity:1" fill="#1a4790" d="M 582.5,85.5 C 582.5,88.1667 582.5,90.8333 582.5,93.5C 600.743,93.8257 618.91,93.4924 637,92.5C 637.667,93.8333 638.333,95.1667 639,96.5C 639.464,95.9056 639.631,95.2389 639.5,94.5C 640.222,94.9175 640.722,95.5842 641,96.5C 641.21,94.9419 641.71,93.6085 642.5,92.5C 642.351,93.552 642.517,94.552 643,95.5C 652.152,93.8431 661.485,92.8431 671,92.5C 671.278,93.4158 671.778,94.0825 672.5,94.5C 671.877,98.288 670.877,101.955 669.5,105.5C 669.167,105.5 668.833,105.5 668.5,105.5C 668.286,103.856 668.62,102.356 669.5,101C 654.5,100.833 639.5,100.667 624.5,100.5C 609.113,100.508 593.946,101.175 579,102.5C 578.536,101.906 578.369,101.239 578.5,100.5C 579.096,95.201 580.429,90.201 582.5,85.5 Z"></path></g><g><path style="opacity:1" fill="#1c4891" d="M 398.5,82.5 C 399.488,87.6405 399.821,92.9738 399.5,98.5C 399.5,98.8333 399.5,99.1667 399.5,99.5C 398.732,98.7375 398.232,97.7375 398,96.5C 397.506,98.1341 397.34,99.8008 397.5,101.5C 381.5,101.5 365.5,101.5 349.5,101.5C 349.167,105.5 348.833,105.5 348.5,101.5C 348.995,97.3535 349.995,93.3535 351.5,89.5C 366.732,89.7939 382.065,89.4606 397.5,88.5C 398.777,89.3167 399.11,87.3167 398.5,82.5 Z"></path></g><g><path style="opacity:1" fill="#184c98" d="M 460.5,100.5 C 459.962,102.117 459.629,103.784 459.5,105.5C 440.326,105.83 421.326,105.497 402.5,104.5C 404.354,100.779 406.687,97.4459 409.5,94.5C 409.435,94.9382 409.601,95.2716 410,95.5C 411.385,94.4495 412.385,93.1161 413,91.5C 428.593,93.4755 444.426,94.1422 460.5,93.5C 459.583,96.0048 459.583,98.3382 460.5,100.5 Z"></path></g><g><path style="opacity:1" fill="#194e9a" d="M 140.5,94.5 C 140.309,98.2621 139.642,101.929 138.5,105.5C 138.167,105.5 137.833,105.5 137.5,105.5C 126.5,105.5 115.5,105.5 104.5,105.5C 104.5,104.5 104.5,103.5 104.5,102.5C 104.721,99.9327 105.388,97.5994 106.5,95.5C 106.351,96.552 106.517,97.552 107,98.5C 107.402,97.1279 107.902,95.7946 108.5,94.5C 119.326,93.1765 129.993,93.1765 140.5,94.5 Z"></path></g><g><path style="opacity:1" fill="#1a519f" d="M 152.5,95.5 C 152.414,96.4959 152.748,97.3292 153.5,98C 163.244,98.1922 172.91,98.6922 182.5,99.5C 182.371,101.216 182.038,102.883 181.5,104.5C 170.915,105.476 160.248,105.809 149.5,105.5C 149.899,101.884 150.899,98.5502 152.5,95.5 Z"></path></g><g><path style="opacity:1" fill="#1752a1" d="M 236.5,99.5 C 253.03,100.813 269.53,100.813 286,99.5C 286.21,101.058 286.71,102.391 287.5,103.5C 287.672,104.492 287.338,105.158 286.5,105.5C 268.801,106.153 251.468,105.486 234.5,103.5C 234.229,101.62 234.896,100.287 236.5,99.5 Z"></path></g><g><path style="opacity:1" fill="#1553a2" d="M 399.5,99.5 C 399.5,101.5 399.5,103.5 399.5,105.5C 381.992,105.83 364.659,105.497 347.5,104.5C 347.263,103.209 347.596,102.209 348.5,101.5C 348.833,105.5 349.167,105.5 349.5,101.5C 365.5,101.5 381.5,101.5 397.5,101.5C 397.34,99.8008 397.506,98.1341 398,96.5C 398.232,97.7375 398.732,98.7375 399.5,99.5 Z"></path></g><g><path style="opacity:1" fill="#18509d" d="M 503.5,99.5 C 503.125,101.698 502.458,103.698 501.5,105.5C 491.319,105.827 481.319,105.494 471.5,104.5C 471.927,101.99 472.593,99.6568 473.5,97.5C 473.612,101.339 474.279,101.339 475.5,97.5C 484.392,96.8205 493.226,96.1538 502,95.5C 502.21,97.0581 502.71,98.3915 503.5,99.5 Z"></path></g><g><path style="opacity:1" fill="#1652a1" d="M 578.5,100.5 C 578.369,101.239 578.536,101.906 579,102.5C 593.946,101.175 609.113,100.508 624.5,100.5C 639.5,100.667 654.5,100.833 669.5,101C 668.62,102.356 668.286,103.856 668.5,105.5C 637.815,106.159 607.482,105.492 577.5,103.5C 577.263,102.209 577.596,101.209 578.5,100.5 Z"></path></g><g><path style="opacity:1" fill="#1d4f9b" d="M 78.5,94.5 C 77.9636,98.3139 76.9636,101.981 75.5,105.5C 69.7414,105.786 64.0748,105.452 58.5,104.5C 55.5,104.5 52.5,104.5 49.5,104.5C 50.5778,101.598 51.2444,98.5979 51.5,95.5C 48.4281,95.8174 45.4281,95.4841 42.5,94.5C 42.6236,93.8933 42.9569,93.56 43.5,93.5C 44.7933,94.1582 46.2933,94.4915 48,94.5C 58.0129,94.2625 67.8462,93.2625 77.5,91.5C 78.3857,92.325 78.719,93.325 78.5,94.5 Z"></path></g><g><path style="opacity:1" fill="#19519f" d="M 537.5,94.5 C 537.5,95.8333 537.5,97.1667 537.5,98.5C 547.083,98.8184 556.583,98.4851 566,97.5C 566.464,98.0944 566.631,98.7611 566.5,99.5C 566.483,101.565 566.15,103.565 565.5,105.5C 555.167,105.5 544.833,105.5 534.5,105.5C 535.055,101.603 536.055,97.9365 537.5,94.5 Z"></path></g><g><path style="opacity:1" fill="#f5fafc" d="M 49.5,104.5 C 52.5,104.5 55.5,104.5 58.5,104.5C 57.5392,107.426 56.8726,110.426 56.5,113.5C 53.5,113.5 50.5,113.5 47.5,113.5C 47.9628,110.779 48.6295,108.112 49.5,105.5C 49.5,105.167 49.5,104.833 49.5,104.5 Z"></path></g><g><path style="opacity:1" fill="#1776bf" d="M 40.5,104.5 C 43.5,104.5 46.5,104.5 49.5,104.5C 49.5,104.833 49.5,105.167 49.5,105.5C 46.0729,107.177 43.0729,106.844 40.5,104.5 Z"></path></g><g><path style="opacity:1" fill="#258ece" d="M 104.5,102.5 C 104.5,103.5 104.5,104.5 104.5,105.5C 115.5,105.5 126.5,105.5 137.5,105.5C 126.346,106.495 115.012,106.828 103.5,106.5C 103.232,104.901 103.566,103.568 104.5,102.5 Z"></path></g><g><path style="opacity:1" fill="#2990cf" d="M 181.5,104.5 C 181.672,105.492 181.338,106.158 180.5,106.5C 169.986,106.828 159.653,106.494 149.5,105.5C 160.248,105.809 170.915,105.476 181.5,104.5 Z"></path></g><g><path style="opacity:1" fill="#2a90d0" d="M 223.5,104.5 C 223.672,105.492 223.338,106.158 222.5,106.5C 212.319,106.827 202.319,106.494 192.5,105.5C 202.915,105.808 213.249,105.475 223.5,104.5 Z"></path></g><g><path style="opacity:1" fill="#1d8dce" d="M 402.5,104.5 C 421.326,105.497 440.326,105.83 459.5,105.5C 459.5,106.167 459.167,106.5 458.5,106.5C 439.326,106.83 420.326,106.497 401.5,105.5C 401.5,104.833 401.833,104.5 402.5,104.5 Z"></path></g><g><path style="opacity:1" fill="#2bb0e6" d="M 399.5,98.5 C 400.167,100.833 400.833,103.167 401.5,105.5C 420.326,106.497 439.326,106.83 458.5,106.5C 458.784,108.415 458.451,110.081 457.5,111.5C 457.649,110.448 457.483,109.448 457,108.5C 420.906,109.496 384.74,109.83 348.5,109.5C 348.5,108.5 348.5,107.5 348.5,106.5C 365.675,106.83 382.675,106.497 399.5,105.5C 399.5,103.5 399.5,101.5 399.5,99.5C 399.5,99.1667 399.5,98.8333 399.5,98.5 Z"></path></g><g><path style="opacity:1" fill="#23a8e1" d="M 149.5,105.5 C 159.653,106.494 169.986,106.828 180.5,106.5C 180.405,108.786 179.738,110.786 178.5,112.5C 168.474,112.457 158.14,112.457 147.5,112.5C 147.721,109.933 148.388,107.599 149.5,105.5 Z"></path></g><g><path style="opacity:1" fill="#239fdb" d="M 471.5,104.5 C 481.319,105.494 491.319,105.827 501.5,105.5C 501.586,109.319 500.919,112.985 499.5,116.5C 499.167,116.5 498.833,116.5 498.5,116.5C 488.882,117.779 478.882,117.779 468.5,116.5C 469.008,112.264 470.008,108.264 471.5,104.5 Z"></path></g><g><path style="opacity:1" fill="#39a9e0" d="M 40.5,104.5 C 43.0729,106.844 46.0729,107.177 49.5,105.5C 48.6295,108.112 47.9628,110.779 47.5,113.5C 47.5,114.167 47.1667,114.5 46.5,114.5C 44.0521,113.527 41.3854,113.194 38.5,113.5C 38.4203,110.219 39.087,107.219 40.5,104.5 Z"></path></g><g><path style="opacity:1" fill="#24a8e1" d="M 137.5,105.5 C 137.833,105.5 138.167,105.5 138.5,105.5C 137.669,108.659 136.669,111.659 135.5,114.5C 124.631,113.126 113.631,111.793 102.5,110.5C 102.232,108.901 102.566,107.568 103.5,106.5C 115.012,106.828 126.346,106.495 137.5,105.5 Z"></path></g><g><path style="opacity:1" fill="#26a9e1" d="M 192.5,105.5 C 202.319,106.494 212.319,106.827 222.5,106.5C 222.279,109.067 221.612,111.401 220.5,113.5C 220.631,112.761 220.464,112.094 220,111.5C 210.917,112.485 201.751,112.818 192.5,112.5C 192.649,111.448 192.483,110.448 192,109.5C 191.768,110.737 191.268,111.737 190.5,112.5C 190.41,109.848 191.076,107.515 192.5,105.5 Z"></path></g><g><path style="opacity:1" fill="#22a4de" d="M 234.5,103.5 C 251.468,105.486 268.801,106.153 286.5,105.5C 286.324,108.727 285.657,111.727 284.5,114.5C 274.64,112.824 264.474,111.824 254,111.5C 253.617,112.056 253.117,112.389 252.5,112.5C 246.021,111.509 239.354,111.176 232.5,111.5C 232.565,108.572 233.232,105.905 234.5,103.5 Z"></path></g><g><path style="opacity:1" fill="#25a5de" d="M 299.5,104.5 C 309.653,105.494 319.986,105.828 330.5,105.5C 329.489,108.94 328.489,112.274 327.5,115.5C 327.586,114.504 327.252,113.671 326.5,113C 317.506,112.5 308.506,112.334 299.5,112.5C 299.657,111.127 299.49,109.793 299,108.5C 298.722,109.416 298.222,110.082 297.5,110.5C 297.595,108.214 298.262,106.214 299.5,104.5 Z"></path></g><g><path style="opacity:1" fill="#21a5de" d="M 577.5,103.5 C 607.482,105.492 637.815,106.159 668.5,105.5C 668.833,105.5 669.167,105.5 669.5,105.5C 669.279,108.067 668.612,110.401 667.5,112.5C 667.565,112.062 667.399,111.728 667,111.5C 648.069,112.161 629.236,112.827 610.5,113.5C 609.325,112.026 608.325,110.36 607.5,108.5C 606.828,109.949 606.161,111.282 605.5,112.5C 595.725,112.808 585.725,112.475 575.5,111.5C 575.565,108.572 576.232,105.905 577.5,103.5 Z"></path></g><g><path style="opacity:1" fill="#2aa2dc" d="M 58.5,104.5 C 64.0748,105.452 69.7414,105.786 75.5,105.5C 75.2576,109.479 74.2576,113.146 72.5,116.5C 72.6495,115.448 72.4828,114.448 72,113.5C 66.734,114.824 61.5673,114.824 56.5,113.5C 56.8726,110.426 57.5392,107.426 58.5,104.5 Z"></path></g><g><path style="opacity:1" fill="#1d9cd9" d="M 347.5,104.5 C 364.659,105.497 381.992,105.83 399.5,105.5C 382.675,106.497 365.675,106.83 348.5,106.5C 348.5,107.5 348.5,108.5 348.5,109.5C 384.74,109.83 420.906,109.496 457,108.5C 457.483,109.448 457.649,110.448 457.5,111.5C 457.768,113.099 457.434,114.432 456.5,115.5C 456.631,114.761 456.464,114.094 456,113.5C 437.739,114.164 419.405,114.497 401,114.5C 382.282,114.487 363.782,113.821 345.5,112.5C 345.565,109.572 346.232,106.905 347.5,104.5 Z"></path></g><g><path style="opacity:1" fill="#22a0dc" d="M 534.5,105.5 C 544.833,105.5 555.167,105.5 565.5,105.5C 564.49,108.924 563.49,112.257 562.5,115.5C 562.649,114.448 562.483,113.448 562,112.5C 557.418,113.802 552.585,114.469 547.5,114.5C 542.421,114.475 537.421,114.142 532.5,113.5C 532.584,110.673 533.25,108.006 534.5,105.5 Z"></path></g><g><path style="opacity:1" fill="#1f97d5" d="M 575.5,111.5 C 585.725,112.475 595.725,112.808 605.5,112.5C 605.768,114.099 605.434,115.432 604.5,116.5C 604.631,115.761 604.464,115.094 604,114.5C 599.586,115.801 594.919,116.468 590,116.5C 584.785,116.45 579.619,116.116 574.5,115.5C 574.232,113.901 574.566,112.568 575.5,111.5 Z"></path></g><g><path style="opacity:1" fill="#1f95d3" d="M 102.5,110.5 C 113.631,111.793 124.631,113.126 135.5,114.5C 135.768,116.099 135.434,117.432 134.5,118.5C 134.649,117.448 134.483,116.448 134,115.5C 128.746,116.155 123.412,116.488 118,116.5C 112.42,116.473 107.086,115.806 102,114.5C 101.517,115.448 101.351,116.448 101.5,117.5C 100.328,115.123 100.661,112.79 102.5,110.5 Z"></path></g><g><path style="opacity:1" fill="#1e94d3" d="M 220.5,113.5 C 220.768,115.099 220.434,116.432 219.5,117.5C 219.631,116.761 219.464,116.094 219,115.5C 214.418,116.802 209.585,117.469 204.5,117.5C 199.421,117.475 194.421,117.142 189.5,116.5C 189.232,114.901 189.566,113.568 190.5,112.5C 191.268,111.737 191.768,110.737 192,109.5C 192.483,110.448 192.649,111.448 192.5,112.5C 201.751,112.818 210.917,112.485 220,111.5C 220.464,112.094 220.631,112.761 220.5,113.5 Z"></path></g><g><path style="opacity:1" fill="#1c95d3" d="M 284.5,114.5 C 284.737,115.791 284.404,116.791 283.5,117.5C 283.631,116.761 283.464,116.094 283,115.5C 273.25,116.486 263.416,116.819 253.5,116.5C 253.737,115.209 253.404,114.209 252.5,113.5C 252.5,113.167 252.5,112.833 252.5,112.5C 253.117,112.389 253.617,112.056 254,111.5C 264.474,111.824 274.64,112.824 284.5,114.5 Z"></path></g><g><path style="opacity:1" fill="#208ccd" d="M 345.5,112.5 C 363.782,113.821 382.282,114.487 401,114.5C 419.405,114.497 437.739,114.164 456,113.5C 456.464,114.094 456.631,114.761 456.5,115.5C 456.672,116.492 456.338,117.158 455.5,117.5C 455.565,117.062 455.399,116.728 455,116.5C 454.691,117.766 454.191,118.933 453.5,120C 449.167,120.167 444.833,120.333 440.5,120.5C 435.746,120.466 431.246,119.799 427,118.5C 426.617,119.056 426.117,119.389 425.5,119.5C 425.062,118.494 424.396,118.494 423.5,119.5C 423.565,119.062 423.399,118.728 423,118.5C 415.234,119.817 407.234,120.483 399,120.5C 390.766,120.483 382.766,119.817 375,118.5C 374.506,120.134 374.34,121.801 374.5,123.5C 373.71,122.391 373.21,121.058 373,119.5C 372.722,120.416 372.222,121.082 371.5,121.5C 371.565,121.062 371.399,120.728 371,120.5C 361.715,122.206 352.215,123.206 342.5,123.5C 343.336,119.677 344.336,116.011 345.5,112.5 Z"></path></g><g><path style="opacity:1" fill="#1c94d3" d="M 667.5,112.5 C 667.784,114.415 667.451,116.081 666.5,117.5C 666.649,116.448 666.483,115.448 666,114.5C 657.231,115.819 648.231,116.485 639,116.5C 629.758,116.487 620.592,116.154 611.5,115.5C 610.662,115.158 610.328,114.492 610.5,113.5C 629.236,112.827 648.069,112.161 667,111.5C 667.399,111.728 667.565,112.062 667.5,112.5 Z"></path></g><g><path style="opacity:1" fill="#208ecf" d="M 47.5,113.5 C 50.5,113.5 53.5,113.5 56.5,113.5C 61.5673,114.824 66.734,114.824 72,113.5C 72.4828,114.448 72.6495,115.448 72.5,116.5C 72.6716,117.492 72.3382,118.158 71.5,118.5C 71.5654,118.062 71.3988,117.728 71,117.5C 63.3333,118.167 55.6667,118.833 48,119.5C 47.6667,118.833 47.3333,118.167 47,117.5C 46.7679,118.737 46.2679,119.737 45.5,120.5C 45.5172,118.435 45.8505,116.435 46.5,114.5C 47.1667,114.5 47.5,114.167 47.5,113.5 Z"></path></g><g><path style="opacity:1" fill="#2087ca" d="M 36.5,120.5 C 33.6085,121.403 30.6085,121.736 27.5,121.5C 27.5,120.5 27.5,119.5 27.5,118.5C 27.4208,117.07 27.7542,115.736 28.5,114.5C 31.4281,113.516 34.4281,113.183 37.5,113.5C 37.0074,115.806 36.6741,118.139 36.5,120.5 Z"></path></g><g><path style="opacity:1" fill="#218acb" d="M 178.5,112.5 C 177.87,116.048 176.87,119.381 175.5,122.5C 166.039,121.873 156.206,121.206 146,120.5C 145.617,121.056 145.117,121.389 144.5,121.5C 145.655,118.543 146.655,115.543 147.5,112.5C 158.14,112.457 168.474,112.457 178.5,112.5 Z"></path></g><g><path style="opacity:1" fill="#208acb" d="M 327.5,115.5 C 327.405,117.786 326.738,119.786 325.5,121.5C 315.474,121.457 305.14,121.457 294.5,121.5C 295.297,117.777 296.297,114.11 297.5,110.5C 298.222,110.082 298.722,109.416 299,108.5C 299.49,109.793 299.657,111.127 299.5,112.5C 308.506,112.334 317.506,112.5 326.5,113C 327.252,113.671 327.586,114.504 327.5,115.5 Z"></path></g><g><path style="opacity:1" fill="#1e82c6" d="M 562.5,115.5 C 562.768,117.099 562.434,118.432 561.5,119.5C 561.631,118.761 561.464,118.094 561,117.5C 559.991,119.025 559.491,120.692 559.5,122.5C 528.76,122.175 498.093,122.508 467.5,123.5C 467.167,123.5 466.833,123.5 466.5,123.5C 466.767,121.035 467.434,118.701 468.5,116.5C 478.882,117.779 488.882,117.779 498.5,116.5C 498.5,117.5 498.5,118.5 498.5,119.5C 507.682,119.827 516.682,119.493 525.5,118.5C 528.009,117.079 530.343,115.412 532.5,113.5C 537.421,114.142 542.421,114.475 547.5,114.5C 552.585,114.469 557.418,113.802 562,112.5C 562.483,113.448 562.649,114.448 562.5,115.5 Z"></path></g><g><path style="opacity:1" fill="#a6d2ec" d="M 498.5,116.5 C 498.833,116.5 499.167,116.5 499.5,116.5C 507.769,118.47 516.435,119.136 525.5,118.5C 516.682,119.493 507.682,119.827 498.5,119.5C 498.5,118.5 498.5,117.5 498.5,116.5 Z"></path></g><g><path style="opacity:1" fill="#2083c6" d="M 666.5,117.5 C 666.672,118.492 666.338,119.158 665.5,119.5C 665.565,119.062 665.399,118.728 665,118.5C 664.691,119.766 664.191,120.933 663.5,122C 646.995,122.169 630.662,122.669 614.5,123.5C 613.129,121.064 612.129,118.397 611.5,115.5C 620.592,116.154 629.758,116.487 639,116.5C 648.231,116.485 657.231,115.819 666,114.5C 666.483,115.448 666.649,116.448 666.5,117.5 Z"></path></g><g><path style="opacity:1" fill="#acd3ec" d="M 27.5,118.5 C 27.5,119.5 27.5,120.5 27.5,121.5C 30.6085,121.736 33.6085,121.403 36.5,120.5C 38.9479,121.473 41.6146,121.806 44.5,121.5C 41.7131,122.477 38.7131,122.81 35.5,122.5C 32.5,122.5 29.5,122.5 26.5,122.5C 26.2322,120.901 26.5655,119.568 27.5,118.5 Z"></path></g><g><path style="opacity:1" fill="#1b7dc2" d="M 252.5,113.5 C 253.404,114.209 253.737,115.209 253.5,116.5C 263.416,116.819 273.25,116.486 283,115.5C 283.464,116.094 283.631,116.761 283.5,117.5C 283.737,118.791 283.404,119.791 282.5,120.5C 280.896,121.287 280.229,122.62 280.5,124.5C 249.5,124.5 218.5,124.5 187.5,124.5C 187.565,121.572 188.232,118.905 189.5,116.5C 194.421,117.142 199.421,117.475 204.5,117.5C 209.585,117.469 214.418,116.802 219,115.5C 219.464,116.094 219.631,116.761 219.5,117.5C 219.33,118.822 219.663,119.989 220.5,121C 230.167,121.667 239.833,121.667 249.5,121C 251.178,118.806 252.178,116.306 252.5,113.5 Z"></path></g><g><path style="opacity:1" fill="#1b7bc1" d="M 604.5,116.5 C 604.279,119.067 603.612,121.401 602.5,123.5C 602.565,123.062 602.399,122.728 602,122.5C 601.5,123.5 601,124.5 600.5,125.5C 590.856,126.498 581.19,126.832 571.5,126.5C 572.267,122.673 573.267,119.006 574.5,115.5C 579.619,116.116 584.785,116.45 590,116.5C 594.919,116.468 599.586,115.801 604,114.5C 604.464,115.094 604.631,115.761 604.5,116.5 Z"></path></g><g><path style="opacity:1" fill="#1b7ac0" d="M 134.5,118.5 C 133.632,122.314 132.632,125.981 131.5,129.5C 131.5,128.5 131.5,127.5 131.5,126.5C 123.58,126.185 115.747,126.518 108,127.5C 106.569,124.734 105.069,122.734 103.5,121.5C 102.326,120.486 101.66,119.153 101.5,117.5C 101.351,116.448 101.517,115.448 102,114.5C 107.086,115.806 112.42,116.473 118,116.5C 123.412,116.488 128.746,116.155 134,115.5C 134.483,116.448 134.649,117.448 134.5,118.5 Z"></path></g><g><path style="opacity:1" fill="#1674bc" d="M 71.5,118.5 C 71.3259,120.861 70.9926,123.194 70.5,125.5C 78.1667,125.5 85.8333,125.5 93.5,125.5C 86.011,126.329 78.3443,126.829 70.5,127C 78.5,127.333 86.5,127.667 94.5,128C 74.4269,128.82 54.4269,128.654 34.5,127.5C 34.366,125.708 34.6993,124.042 35.5,122.5C 38.7131,122.81 41.7131,122.477 44.5,121.5C 44.5,120.833 44.8333,120.5 45.5,120.5C 46.2679,119.737 46.7679,118.737 47,117.5C 47.3333,118.167 47.6667,118.833 48,119.5C 55.6667,118.833 63.3333,118.167 71,117.5C 71.3988,117.728 71.5654,118.062 71.5,118.5 Z"></path></g><g><path style="opacity:1" fill="#1374bc" d="M 561.5,119.5 C 560.976,121.306 560.309,122.972 559.5,124.5C 558.58,123.933 558.246,124.599 558.5,126.5C 528.167,126.5 497.833,126.5 467.5,126.5C 467.5,125.5 467.5,124.5 467.5,123.5C 498.093,122.508 528.76,122.175 559.5,122.5C 559.491,120.692 559.991,119.025 561,117.5C 561.464,118.094 561.631,118.761 561.5,119.5 Z"></path></g><g><path style="opacity:1" fill="#126db8" d="M 371.5,121.5 C 370.945,125.397 369.945,129.063 368.5,132.5C 359.623,131.57 350.29,131.236 340.5,131.5C 340.565,128.572 341.232,125.905 342.5,123.5C 352.215,123.206 361.715,122.206 371,120.5C 371.399,120.728 371.565,121.062 371.5,121.5 Z"></path></g><g><path style="opacity:1" fill="#1573bb" d="M 423.5,119.5 C 422.66,121.853 421.326,123.853 419.5,125.5C 419.565,125.062 419.399,124.728 419,124.5C 418.044,125.579 417.211,126.745 416.5,128C 403.171,128.5 389.837,128.667 376.5,128.5C 376.167,123.167 375.833,123.167 375.5,128.5C 374.549,127.081 374.216,125.415 374.5,123.5C 374.34,121.801 374.506,120.134 375,118.5C 382.766,119.817 390.766,120.483 399,120.5C 407.234,120.483 415.234,119.817 423,118.5C 423.399,118.728 423.565,119.062 423.5,119.5 Z"></path></g><g><path style="opacity:1" fill="#1973bb" d="M 455.5,117.5 C 455.245,121.8 454.245,125.8 452.5,129.5C 452.279,126.903 451.779,126.903 451,129.5C 442.226,128.184 433.393,128.184 424.5,129.5C 423.812,130.855 422.812,131.855 421.5,132.5C 422.839,128.151 424.172,123.818 425.5,119.5C 426.117,119.389 426.617,119.056 427,118.5C 431.246,119.799 435.746,120.466 440.5,120.5C 444.833,120.333 449.167,120.167 453.5,120C 454.191,118.933 454.691,117.766 455,116.5C 455.399,116.728 455.565,117.062 455.5,117.5 Z"></path></g><g><path style="opacity:1" fill="#1369b4" d="M 466.5,123.5 C 466.833,123.5 467.167,123.5 467.5,123.5C 467.5,124.5 467.5,125.5 467.5,126.5C 497.833,126.5 528.167,126.5 558.5,126.5C 558.246,124.599 558.58,123.933 559.5,124.5C 559.655,127.716 558.655,130.383 556.5,132.5C 526.888,131.528 496.888,131.194 466.5,131.5C 466.657,130.127 466.49,128.793 466,127.5C 465.722,128.416 465.222,129.082 464.5,129.5C 464.595,127.214 465.262,125.214 466.5,123.5 Z"></path></g><g><path style="opacity:1" fill="#2b71b9" d="M 26.5,122.5 C 25.0712,125.308 24.4045,128.308 24.5,131.5C 21.1016,131.82 17.7683,131.487 14.5,130.5C 15.4822,127.904 16.1489,125.238 16.5,122.5C 19.8333,122.5 23.1667,122.5 26.5,122.5 Z"></path></g><g><path style="opacity:1" fill="#1467b3" d="M 131.5,129.5 C 131.737,130.791 131.404,131.791 130.5,132.5C 130.167,128.5 129.833,128.5 129.5,132.5C 122.192,132.436 115.192,132.436 108.5,132.5C 106.597,129.021 104.93,125.354 103.5,121.5C 105.069,122.734 106.569,124.734 108,127.5C 115.747,126.518 123.58,126.185 131.5,126.5C 131.5,127.5 131.5,128.5 131.5,129.5 Z"></path></g><g><path style="opacity:1" fill="#166db7" d="M 175.5,122.5 C 175.118,126.446 174.118,130.112 172.5,133.5C 172.631,132.761 172.464,132.094 172,131.5C 161.833,131.488 151.667,131.488 141.5,131.5C 142.5,128.167 143.5,124.833 144.5,121.5C 145.117,121.389 145.617,121.056 146,120.5C 156.206,121.206 166.039,121.873 175.5,122.5 Z"></path></g><g><path style="opacity:1" fill="#1269b5" d="M 282.5,120.5 C 281.987,124.229 281.154,127.896 280,131.5C 279.292,132.381 278.458,133.047 277.5,133.5C 277.082,132.778 276.416,132.278 275.5,132C 246.595,131.172 217.761,131.338 189,132.5C 188.015,130.825 187.181,129.158 186.5,127.5C 186.263,126.209 186.596,125.209 187.5,124.5C 218.5,124.5 249.5,124.5 280.5,124.5C 280.229,122.62 280.896,121.287 282.5,120.5 Z"></path></g><g><path style="opacity:1" fill="#146cb7" d="M 325.5,121.5 C 325.025,125.084 324.025,128.417 322.5,131.5C 322.631,130.761 322.464,130.094 322,129.5C 312.045,131.204 301.878,132.204 291.5,132.5C 291.926,128.573 292.926,124.907 294.5,121.5C 305.14,121.457 315.474,121.457 325.5,121.5 Z"></path></g><g><path style="opacity:1" fill="#116cb7" d="M 665.5,119.5 C 664.945,123.397 663.945,127.063 662.5,130.5C 661.89,128.15 661.556,128.483 661.5,131.5C 647.496,131.667 633.496,131.5 619.5,131C 618.54,129.581 617.707,128.081 617,126.5C 616.601,126.728 616.435,127.062 616.5,127.5C 615.655,126.329 614.989,124.995 614.5,123.5C 630.662,122.669 646.995,122.169 663.5,122C 664.191,120.933 664.691,119.766 665,118.5C 665.399,118.728 665.565,119.062 665.5,119.5 Z"></path></g><g><path style="opacity:1" fill="#1962af" d="M 419.5,125.5 C 417.646,129.221 415.313,132.554 412.5,135.5C 401.283,134.394 389.616,134.227 377.5,135C 378.136,137.394 378.136,139.894 377.5,142.5C 376.028,138.081 375.362,133.414 375.5,128.5C 375.833,123.167 376.167,123.167 376.5,128.5C 389.837,128.667 403.171,128.5 416.5,128C 417.211,126.745 418.044,125.579 419,124.5C 419.399,124.728 419.565,125.062 419.5,125.5 Z"></path></g><g><path style="opacity:1" fill="#1660ae" d="M 93.5,125.5 C 96.1399,127.423 97.8065,130.09 98.5,133.5C 97.596,134.209 97.2627,135.209 97.5,136.5C 79.5,136.5 61.5,136.5 43.5,136.5C 43.6602,134.801 43.4935,133.134 43,131.5C 42.7216,132.416 42.2216,133.082 41.5,133.5C 39.3647,131.631 36.6981,130.964 33.5,131.5C 33.2322,129.901 33.5655,128.568 34.5,127.5C 54.4269,128.654 74.4269,128.82 94.5,128C 86.5,127.667 78.5,127.333 70.5,127C 78.3443,126.829 86.011,126.329 93.5,125.5 Z"></path></g><g><path style="opacity:1" fill="#175caa" d="M 322.5,131.5 C 322.829,134.228 322.163,136.562 320.5,138.5C 310.376,138.56 300.043,138.56 289.5,138.5C 289.595,136.214 290.262,134.214 291.5,132.5C 301.878,132.204 312.045,131.204 322,129.5C 322.464,130.094 322.631,130.761 322.5,131.5 Z"></path></g><g><path style="opacity:1" fill="#145fad" d="M 602.5,123.5 C 601.945,127.397 600.945,131.063 599.5,134.5C 599.631,133.761 599.464,133.094 599,132.5C 598.187,134.436 597.687,136.436 597.5,138.5C 588.5,138.5 579.5,138.5 570.5,138.5C 570.768,136.901 570.434,135.568 569.5,134.5C 569.802,131.627 570.469,128.961 571.5,126.5C 581.19,126.832 590.856,126.498 600.5,125.5C 601,124.5 601.5,123.5 602,122.5C 602.399,122.728 602.565,123.062 602.5,123.5 Z"></path></g><g><path style="opacity:1" fill="#175caa" d="M 452.5,129.5 C 452.59,132.152 451.924,134.485 450.5,136.5C 449.442,137.6 448.608,138.934 448,140.5C 439.77,138.548 431.27,137.882 422.5,138.5C 422.912,140.973 421.912,142.306 419.5,142.5C 419.959,139.123 420.626,135.789 421.5,132.5C 422.812,131.855 423.812,130.855 424.5,129.5C 433.393,128.184 442.226,128.184 451,129.5C 451.779,126.903 452.279,126.903 452.5,129.5 Z"></path></g><g><path style="opacity:1" fill="#1553a4" d="M 98.5,133.5 C 101.048,137.93 103.048,142.597 104.5,147.5C 85.5,148.833 66.5,148.833 47.5,147.5C 47.6741,145.139 48.0074,142.806 48.5,140.5C 45.8333,140.5 43.1667,140.5 40.5,140.5C 40.6741,138.139 41.0074,135.806 41.5,133.5C 42.2216,133.082 42.7216,132.416 43,131.5C 43.4935,133.134 43.6602,134.801 43.5,136.5C 61.5,136.5 79.5,136.5 97.5,136.5C 97.2627,135.209 97.596,134.209 98.5,133.5 Z"></path></g><g><path style="opacity:1" fill="#1957a7" d="M 130.5,132.5 C 130.586,133.496 130.252,134.329 129.5,135C 124.379,138.453 119.546,142.286 115,146.5C 112.565,141.962 110.398,137.296 108.5,132.5C 115.192,132.436 122.192,132.436 129.5,132.5C 129.833,128.5 130.167,128.5 130.5,132.5 Z"></path></g><g><path style="opacity:1" fill="#1655a6" d="M 172.5,133.5 C 171.327,138.525 169.993,143.525 168.5,148.5C 157.986,148.828 147.653,148.494 137.5,147.5C 138.519,142.089 139.853,136.756 141.5,131.5C 151.667,131.488 161.833,131.488 172,131.5C 172.464,132.094 172.631,132.761 172.5,133.5 Z"></path></g><g><path style="opacity:1" fill="#1455a6" d="M 186.5,127.5 C 187.181,129.158 188.015,130.825 189,132.5C 217.761,131.338 246.595,131.172 275.5,132C 276.416,132.278 277.082,132.778 277.5,133.5C 271.348,138.085 265.348,142.918 259.5,148C 239.167,148.667 218.833,148.667 198.5,148C 194.212,142.59 190.045,137.09 186,131.5C 185.235,129.934 185.402,128.601 186.5,127.5 Z"></path></g><g><path style="opacity:1" fill="#1251a3" d="M 289.5,138.5 C 300.043,138.56 310.376,138.56 320.5,138.5C 319.833,141.833 319.167,145.167 318.5,148.5C 307.828,148.667 297.161,148.5 286.5,148C 287.311,144.778 288.311,141.612 289.5,138.5 Z"></path></g><g><path style="opacity:1" fill="#1655a6" d="M 340.5,131.5 C 350.29,131.236 359.623,131.57 368.5,132.5C 367.453,138.02 366.12,143.354 364.5,148.5C 354.773,149.139 345.44,148.472 336.5,146.5C 337.341,141.261 338.674,136.261 340.5,131.5 Z"></path></g><g><path style="opacity:1" fill="#2058a7" d="M 412.5,135.5 C 409.722,140.118 406.722,144.618 403.5,149C 395.167,149.667 386.833,149.667 378.5,149C 377.577,146.959 377.244,144.792 377.5,142.5C 378.136,139.894 378.136,137.394 377.5,135C 389.616,134.227 401.283,134.394 412.5,135.5 Z"></path></g><g><path style="opacity:1" fill="#1352a3" d="M 450.5,136.5 C 449.787,140.687 448.787,144.687 447.5,148.5C 437.442,149.14 427.775,148.473 418.5,146.5C 418.232,144.901 418.566,143.568 419.5,142.5C 421.912,142.306 422.912,140.973 422.5,138.5C 431.27,137.882 439.77,138.548 448,140.5C 448.608,138.934 449.442,137.6 450.5,136.5 Z"></path></g><g><path style="opacity:1" fill="#1456a6" d="M 556.5,132.5 C 549.985,137.259 543.652,142.259 537.5,147.5C 537.44,146.957 537.107,146.624 536.5,146.5C 516.706,147.155 497.039,147.822 477.5,148.5C 472.783,142.446 468.45,136.113 464.5,129.5C 465.222,129.082 465.722,128.416 466,127.5C 466.49,128.793 466.657,130.127 466.5,131.5C 496.888,131.194 526.888,131.528 556.5,132.5 Z"></path></g><g><path style="opacity:1" fill="#1451a3" d="M 599.5,134.5 C 598.5,139.167 597.5,143.833 596.5,148.5C 586.145,148.832 575.812,148.499 565.5,147.5C 566.375,142.992 567.709,138.658 569.5,134.5C 570.434,135.568 570.768,136.901 570.5,138.5C 579.5,138.5 588.5,138.5 597.5,138.5C 597.687,136.436 598.187,134.436 599,132.5C 599.464,133.094 599.631,133.761 599.5,134.5 Z"></path></g><g><path style="opacity:1" fill="#1354a5" d="M 662.5,130.5 C 661.168,136.494 659.835,142.494 658.5,148.5C 647.147,148.832 635.814,148.499 624.5,147.5C 621.267,141.037 618.6,134.371 616.5,127.5C 616.435,127.062 616.601,126.728 617,126.5C 617.707,128.081 618.54,129.581 619.5,131C 633.496,131.5 647.496,131.667 661.5,131.5C 661.556,128.483 661.89,128.15 662.5,130.5 Z"></path></g><g><path style="opacity:1" fill="#2657a7" d="M 30.5,140.5 C 33.5,140.5 36.5,140.5 39.5,140.5C 39.1274,143.574 38.4608,146.574 37.5,149.5C 34.5,149.5 31.5,149.5 28.5,149.5C 28.7556,146.402 29.4222,143.402 30.5,140.5 Z"></path></g><g><path style="opacity:1" fill="#003c98" d="M 537.5,147.5 C 517.576,148.487 497.576,148.821 477.5,148.5C 497.039,147.822 516.706,147.155 536.5,146.5C 537.107,146.624 537.44,146.957 537.5,147.5 Z"></path></g><g><path style="opacity:1" fill="#547eba" d="M 47.5,147.5 C 66.5,148.833 85.5,148.833 104.5,147.5C 105.043,147.56 105.376,147.893 105.5,148.5C 85.8333,149.833 66.1667,149.833 46.5,148.5C 46.6236,147.893 46.9569,147.56 47.5,147.5 Z"></path></g><g><path style="opacity:1" fill="#84a3ce" d="M 137.5,147.5 C 147.653,148.494 157.986,148.828 168.5,148.5C 157.993,149.823 147.326,149.823 136.5,148.5C 136.624,147.893 136.957,147.56 137.5,147.5 Z"></path></g><g><path style="opacity:1" fill="#82a2ce" d="M 336.5,146.5 C 345.44,148.472 354.773,149.139 364.5,148.5C 355.014,149.494 345.348,149.827 335.5,149.5C 335.263,148.209 335.596,147.209 336.5,146.5 Z"></path></g><g><path style="opacity:1" fill="#82a1cd" d="M 418.5,146.5 C 427.775,148.473 437.442,149.14 447.5,148.5C 437.681,149.494 427.681,149.827 417.5,149.5C 417.263,148.209 417.596,147.209 418.5,146.5 Z"></path></g><g><path style="opacity:0.768" fill="#f6f7fa" d="M 90.5,154.5 C 114.833,154.5 139.167,154.5 163.5,154.5C 162.317,160.565 160.817,166.565 159,172.5C 157.075,173.88 155.241,175.38 153.5,177C 142.937,178.453 132.27,178.953 121.5,178.5C 120.398,183.409 119.065,188.242 117.5,193C 127.167,193.333 136.833,193.667 146.5,194C 147.88,195.925 149.38,197.759 151,199.5C 150.845,201.811 150.845,204.144 151,206.5C 153.213,203.905 155.047,201.072 156.5,198C 155.125,194.043 153.458,190.209 151.5,186.5C 156.5,185.833 161.5,185.167 166.5,184.5C 173.306,174.528 180.306,164.694 187.5,155C 194.833,154.333 202.167,154.333 209.5,155C 212.705,172.061 215.538,189.228 218,206.5C 222.762,189.283 227.595,172.116 232.5,155C 248.833,154.333 265.167,154.333 281.5,155C 284.731,159.388 287.731,163.888 290.5,168.5C 289.156,174.21 287.656,179.877 286,185.5C 283.795,188.04 281.295,190.207 278.5,192C 280.503,198.006 282.003,204.173 283,210.5C 287.06,197.43 290.894,184.263 294.5,171C 291.042,165.918 287.709,160.752 284.5,155.5C 304.825,154.334 325.158,154.167 345.5,155C 349.084,159.508 352.418,164.174 355.5,169C 352.255,180.812 349.089,192.645 346,204.5C 340.894,207.972 336.06,211.806 331.5,216C 306.502,216.5 281.502,216.667 256.5,216.5C 255.372,210.858 254.372,205.191 253.5,199.5C 251.076,199.192 248.743,199.526 246.5,200.5C 244.907,205.713 243.24,210.88 241.5,216C 225.503,216.5 209.503,216.667 193.5,216.5C 192.886,212.865 192.552,209.198 192.5,205.5C 188.116,205.174 183.783,205.508 179.5,206.5C 177.289,209.756 174.955,212.922 172.5,216C 147.833,216.667 123.167,216.667 98.5,216C 94.7697,211.941 91.4363,207.608 88.5,203C 91.6556,192.378 94.6556,181.711 97.5,171C 94.7346,165.641 92.4012,160.141 90.5,154.5 Z M 249.5,175.5 C 254.875,175.172 260.208,175.505 265.5,176.5C 265.291,177.086 264.957,177.586 264.5,178C 259.511,178.499 254.511,178.666 249.5,178.5C 249.5,177.5 249.5,176.5 249.5,175.5 Z M 316.5,178.5 C 319.833,178.5 323.167,178.5 326.5,178.5C 325.338,183.148 324.171,187.814 323,192.5C 319.545,193.791 316.045,193.791 312.5,192.5C 313.836,187.821 315.169,183.154 316.5,178.5 Z"></path></g><g><path style="opacity:0.799" fill="#f3f5f9" d="M 461.5,216.5 C 460.886,212.865 460.552,209.198 460.5,205.5C 456.116,205.174 451.783,205.508 447.5,206.5C 445.289,209.756 442.955,212.922 440.5,216C 431.452,216.194 422.452,216.694 413.5,217.5C 412.417,216.635 412.251,215.635 413,214.5C 414.667,212.5 416.333,210.5 418,208.5C 418.667,207.833 418.667,207.167 418,206.5C 414.167,209.667 410.333,212.833 406.5,216C 393.5,216.667 380.5,216.667 367.5,216C 364.789,212.078 361.955,208.244 359,204.5C 360.87,192.348 363.704,180.348 367.5,168.5C 371.967,164.205 376.633,160.039 381.5,156C 398.739,154.528 416.072,154.028 433.5,154.5C 432.471,160.282 430.971,165.949 429,171.5C 426.833,173 424.667,174.5 422.5,176C 424.577,176.192 426.577,176.692 428.5,177.5C 427.593,180.057 426.593,182.557 425.5,185C 428.554,185.821 431.554,185.655 434.5,184.5C 441.306,174.528 448.306,164.694 455.5,155C 463.08,154.187 470.58,154.353 478,155.5C 480.883,172.801 483.55,190.134 486,207.5C 489.986,193.889 493.82,180.222 497.5,166.5C 495.129,162.476 492.795,158.476 490.5,154.5C 502.838,154.333 515.171,154.5 527.5,155C 528.402,162.772 529.236,170.605 530,178.5C 535.131,170.404 540.631,162.571 546.5,155C 555.494,154.5 564.494,154.334 573.5,154.5C 568.951,175.029 563.618,195.363 557.5,215.5C 549.275,216.181 541.109,216.847 533,217.5C 532.851,214.721 532.017,214.221 530.5,216C 523.842,216.5 517.175,216.666 510.5,216.5C 510.656,210.687 509.989,210.354 508.5,215.5C 492.848,216.499 477.181,216.833 461.5,216.5 Z M 422.5,200.5 C 422.523,198.073 423.023,195.74 424,193.5C 426.277,196.49 425.777,198.823 422.5,200.5 Z"></path></g><g><path style="opacity:0.829" fill="#f5f7fa" d="M 576.5,154.5 C 595.17,154.333 613.836,154.5 632.5,155C 629.268,168.442 624.934,181.442 619.5,194C 620.167,194.667 620.833,195.333 621.5,196C 619.649,202.741 617.649,209.408 615.5,216C 597.26,216.174 579.093,216.674 561,217.5C 560.333,215.833 560.333,214.167 561,212.5C 566.171,193.148 571.338,173.815 576.5,154.5 Z"></path></g><g><path style="opacity:1" fill="#8ca7d0" d="M 158.5,160.5 C 148.522,159.168 138.189,158.501 127.5,158.5C 116.995,158.5 106.661,158.833 96.5,159.5C 96.5,159.833 96.5,160.167 96.5,160.5C 95.596,159.791 95.2627,158.791 95.5,157.5C 116.833,157.5 138.167,157.5 159.5,157.5C 159.737,158.791 159.404,159.791 158.5,160.5 Z"></path></g><g><path style="opacity:1" fill="#8ca7d0" d="M 344.5,158.5 C 326.659,158.17 308.992,158.503 291.5,159.5C 290.957,159.44 290.624,159.107 290.5,158.5C 308.662,157.173 326.662,157.173 344.5,158.5 Z"></path></g><g><path style="opacity:1" fill="#8ca7d0" d="M 384.5,158.5 C 399.324,157.504 414.324,157.171 429.5,157.5C 429.737,158.791 429.404,159.791 428.5,160.5C 414.205,158.517 399.538,157.85 384.5,158.5 Z"></path></g><g><path style="opacity:1" fill="#8ba6cf" d="M 524.5,158.5 C 515.318,158.173 506.318,158.507 497.5,159.5C 496.957,159.44 496.624,159.107 496.5,158.5C 505.992,157.178 515.325,157.178 524.5,158.5 Z"></path></g><g><path style="opacity:1" fill="#003291" d="M 96.5,159.5 C 106.661,158.833 116.995,158.5 127.5,158.5C 138.189,158.501 148.522,159.168 158.5,160.5C 157.766,161.708 157.433,163.041 157.5,164.5C 156.199,163.116 156.199,161.616 157.5,160C 137.169,159.5 116.836,159.333 96.5,159.5 Z"></path></g><g><path style="opacity:1" fill="#124598" d="M 96.5,159.5 C 116.836,159.333 137.169,159.5 157.5,160C 156.199,161.616 156.199,163.116 157.5,164.5C 157.005,166.482 156.505,168.482 156,170.5C 154.229,171.304 152.729,172.471 151.5,174C 140.833,174.333 130.167,174.667 119.5,175C 118.934,175.995 118.267,176.828 117.5,177.5C 111.907,176.223 105.907,176.223 99.5,177.5C 101.413,171.308 100.413,165.642 96.5,160.5C 96.5,160.167 96.5,159.833 96.5,159.5 Z"></path></g><g><path style="opacity:1" fill="#134599" d="M 209.5,175.5 C 209.167,175.5 208.833,175.5 208.5,175.5C 199.014,173.843 189.347,172.843 179.5,172.5C 181.859,167.627 184.859,163.127 188.5,159C 194.825,158.5 201.158,158.334 207.5,158.5C 208.275,164.153 208.942,169.82 209.5,175.5 Z"></path></g><g><path style="opacity:1" fill="#16479b" d="M 284.5,174.5 C 279.531,173.217 274.531,173.217 269.5,174.5C 262.576,172.537 255.243,171.87 247.5,172.5C 243.019,171.352 238.352,171.185 233.5,172C 237.5,172.333 241.5,172.667 245.5,173C 240.451,173.272 235.451,173.772 230.5,174.5C 231.579,169.441 232.912,164.441 234.5,159.5C 249.822,158.334 265.156,158.167 280.5,159C 282.333,161.5 284.167,164 286,166.5C 286.885,169.538 286.385,172.205 284.5,174.5 Z"></path></g><g><path style="opacity:1" fill="#12479c" d="M 344.5,158.5 C 346.448,161.621 348.615,164.621 351,167.5C 351.78,169.387 351.613,171.054 350.5,172.5C 332.673,172.163 315.006,171.163 297.5,169.5C 295.5,166.167 293.5,162.833 291.5,159.5C 308.992,158.503 326.659,158.17 344.5,158.5 Z"></path></g><g><path style="opacity:1" fill="#12489d" d="M 428.5,160.5 C 428.598,162.553 427.931,164.22 426.5,165.5C 426.565,165.062 426.399,164.728 426,164.5C 425.727,166.329 424.893,167.829 423.5,169C 407.156,169.833 390.823,169.666 374.5,168.5C 377.661,165.509 380.995,162.675 384.5,160C 399.241,159.185 413.908,159.351 428.5,160.5 Z"></path></g><g><path style="opacity:1" fill="#134396" d="M 478.5,178.5 C 477.685,177.571 476.852,176.571 476,175.5C 471.08,176.154 466.08,176.488 461,176.5C 455.587,176.447 450.42,175.78 445.5,174.5C 448.947,169.213 452.614,164.046 456.5,159C 462.825,158.5 469.158,158.334 475.5,158.5C 476.241,165.206 477.241,171.872 478.5,178.5 Z"></path></g><g><path style="opacity:1" fill="#13469c" d="M 524.5,158.5 C 525.487,163.305 525.821,168.305 525.5,173.5C 525.167,173.5 524.833,173.5 524.5,173.5C 524.196,172.85 523.863,172.183 523.5,171.5C 515.943,170.818 508.443,170.151 501,169.5C 500.768,170.737 500.268,171.737 499.5,172.5C 499.466,169.801 500.133,167.301 501.5,165C 500.335,163.008 499.002,161.175 497.5,159.5C 506.318,158.507 515.318,158.173 524.5,158.5 Z"></path></g><g><path style="opacity:1" fill="#124498" d="M 564.5,174.5 C 564.167,174.5 563.833,174.5 563.5,174.5C 555.684,173.508 547.684,173.174 539.5,173.5C 539.5,172.5 539.5,171.5 539.5,170.5C 542.034,166.608 544.7,162.775 547.5,159C 554.833,158.333 562.167,158.333 569.5,159C 568.014,164.313 566.347,169.48 564.5,174.5 Z"></path></g><g><path style="opacity:1" fill="#1a4799" d="M 593.5,177.5 C 593.167,177.5 592.833,177.5 592.5,177.5C 586.601,176.795 580.601,176.128 574.5,175.5C 576.301,169.962 577.634,164.295 578.5,158.5C 594.837,158.333 611.17,158.5 627.5,159C 626.323,163.707 624.99,168.373 623.5,173C 613.506,173.5 603.506,173.666 593.5,173.5C 593.5,174.833 593.5,176.167 593.5,177.5 Z"></path></g><g><path style="opacity:1" fill="#0e3b8c" d="M 384.5,158.5 C 399.538,157.85 414.205,158.517 428.5,160.5C 413.908,159.351 399.241,159.185 384.5,160C 380.995,162.675 377.661,165.509 374.5,168.5C 390.823,169.666 407.156,169.833 423.5,169C 424.893,167.829 425.727,166.329 426,164.5C 426.399,164.728 426.565,165.062 426.5,165.5C 425.515,169.33 423.181,172.163 419.5,174C 408.424,174.189 397.424,174.689 386.5,175.5C 385.542,175.953 384.708,176.619 384,177.5C 379.531,176.189 375.031,176.189 370.5,177.5C 369.614,176.675 369.281,175.675 369.5,174.5C 369.857,172.411 370.523,170.411 371.5,168.5C 375.852,165.143 380.185,161.809 384.5,158.5 Z"></path></g><g><path style="opacity:1" fill="#0f3985" d="M 297.5,169.5 C 315.006,171.163 332.673,172.163 350.5,172.5C 350.073,175.01 349.407,177.343 348.5,179.5C 348.423,178.25 347.756,177.417 346.5,177C 341.129,176.324 335.796,176.491 330.5,177.5C 330.5,176.833 330.5,176.167 330.5,175.5C 325.025,174.511 319.358,174.178 313.5,174.5C 312.685,175.429 311.852,176.429 311,177.5C 306.263,176.531 301.43,176.197 296.5,176.5C 297.219,174.236 297.552,171.903 297.5,169.5 Z"></path></g><g><path style="opacity:0.841" fill="#eaecf2" d="M 247.5,172.5 C 255.243,171.87 262.576,172.537 269.5,174.5C 268.949,177.056 267.949,179.389 266.5,181.5C 259.087,182.128 252.087,181.461 245.5,179.5C 246.455,177.254 247.122,174.921 247.5,172.5 Z M 249.5,175.5 C 249.5,176.5 249.5,177.5 249.5,178.5C 254.511,178.666 259.511,178.499 264.5,178C 264.957,177.586 265.291,177.086 265.5,176.5C 260.208,175.505 254.875,175.172 249.5,175.5 Z"></path></g><g><path style="opacity:1" fill="#12367d" d="M 247.5,172.5 C 247.122,174.921 246.455,177.254 245.5,179.5C 240.073,179.782 234.74,179.449 229.5,178.5C 229.232,176.901 229.566,175.568 230.5,174.5C 235.451,173.772 240.451,173.272 245.5,173C 241.5,172.667 237.5,172.333 233.5,172C 238.352,171.185 243.019,171.352 247.5,172.5 Z"></path></g><g><path style="opacity:1" fill="#a1b4d2" d="M 313.5,174.5 C 319.358,174.178 325.025,174.511 330.5,175.5C 324.741,175.214 319.075,175.548 313.5,176.5C 313.5,175.833 313.5,175.167 313.5,174.5 Z"></path></g><g><path style="opacity:0.737" fill="#f6f6f9" d="M 330.5,175.5 C 330.5,176.167 330.5,176.833 330.5,177.5C 329.055,180.937 328.055,184.603 327.5,188.5C 326.812,191.02 325.812,193.52 324.5,196C 318.984,196.817 313.65,196.651 308.5,195.5C 309.968,189.1 311.634,182.766 313.5,176.5C 319.075,175.548 324.741,175.214 330.5,175.5 Z M 316.5,178.5 C 315.169,183.154 313.836,187.821 312.5,192.5C 316.045,193.791 319.545,193.791 323,192.5C 324.171,187.814 325.338,183.148 326.5,178.5C 323.167,178.5 319.833,178.5 316.5,178.5 Z"></path></g><g><path style="opacity:1" fill="#112e6f" d="M 179.5,172.5 C 189.347,172.843 199.014,173.843 208.5,175.5C 208.5,177.833 208.5,180.167 208.5,182.5C 204.167,182.5 199.833,182.5 195.5,182.5C 195.715,180.821 195.048,179.821 193.5,179.5C 191.97,180.211 190.637,181.211 189.5,182.5C 184.17,183.136 178.836,182.469 173.5,180.5C 175.147,177.527 177.147,174.86 179.5,172.5 Z"></path></g><g><path style="opacity:1" fill="#102c6d" d="M 284.5,174.5 C 284.706,177.495 284.04,180.162 282.5,182.5C 277.286,182.761 271.953,182.428 266.5,181.5C 267.949,179.389 268.949,177.056 269.5,174.5C 274.531,173.217 279.531,173.217 284.5,174.5 Z"></path></g><g><path style="opacity:1" fill="#103175" d="M 524.5,173.5 C 524.5,175.833 524.5,178.167 524.5,180.5C 515.5,180.5 506.5,180.5 497.5,180.5C 497.565,177.572 498.232,174.905 499.5,172.5C 500.268,171.737 500.768,170.737 501,169.5C 508.443,170.151 515.943,170.818 523.5,171.5C 523.863,172.183 524.196,172.85 524.5,173.5 Z"></path></g><g><path style="opacity:1" fill="#0f3174" d="M 539.5,170.5 C 539.5,171.5 539.5,172.5 539.5,173.5C 547.684,173.174 555.684,173.508 563.5,174.5C 562.962,176.117 562.629,177.784 562.5,179.5C 552.903,180.097 543.57,179.431 534.5,177.5C 535.934,174.953 537.6,172.619 539.5,170.5 Z"></path></g><g><path style="opacity:1" fill="#60719d" d="M 592.5,177.5 C 592.833,177.5 593.167,177.5 593.5,177.5C 602.167,178.167 610.833,178.833 619.5,179.5C 610.105,180.138 601.105,179.471 592.5,177.5 Z"></path></g><g><path style="opacity:1" fill="#f1f2f6" d="M 193.5,179.5 C 193.5,180.5 193.5,181.5 193.5,182.5C 193.5,184.167 193.5,185.833 193.5,187.5C 191.265,187.795 189.265,187.461 187.5,186.5C 188.6,185.395 189.267,184.062 189.5,182.5C 190.637,181.211 191.97,180.211 193.5,179.5 Z"></path></g><g><path style="opacity:1" fill="#14215b" d="M 117.5,177.5 C 117.283,182.033 116.283,186.366 114.5,190.5C 108.794,190.171 103.128,190.505 97.5,191.5C 97,192.5 96.5,193.5 96,194.5C 95.5357,193.906 95.369,193.239 95.5,192.5C 96.0766,187.277 97.41,182.277 99.5,177.5C 105.907,176.223 111.907,176.223 117.5,177.5 Z"></path></g><g><path style="opacity:1" fill="#121c53" d="M 229.5,178.5 C 234.74,179.449 240.073,179.782 245.5,179.5C 252.087,181.461 259.087,182.128 266.5,181.5C 271.953,182.428 277.286,182.761 282.5,182.5C 281.522,185.478 279.522,187.478 276.5,188.5C 275.262,188.19 275.262,187.69 276.5,187C 268.5,186.833 260.5,186.667 252.5,186.5C 244.1,186.516 235.934,187.183 228,188.5C 227.517,187.552 227.351,186.552 227.5,185.5C 227.927,182.99 228.593,180.657 229.5,178.5 Z"></path></g><g><path style="opacity:1" fill="#162059" d="M 419.5,195.5 C 418.549,194.081 418.216,192.415 418.5,190.5C 412.773,190.26 407.106,190.593 401.5,191.5C 397.445,191.824 393.445,191.491 389.5,190.5C 389.627,185.538 391.96,182.038 396.5,180C 405.518,179.168 414.518,179.335 423.5,180.5C 422.163,185.525 420.83,190.525 419.5,195.5 Z"></path></g><g><path style="opacity:1" fill="#16235d" d="M 574.5,175.5 C 580.601,176.128 586.601,176.795 592.5,177.5C 601.105,179.471 610.105,180.138 619.5,179.5C 618.608,183.853 617.608,188.186 616.5,192.5C 607.167,192.5 597.833,192.5 588.5,192.5C 588.5,193.5 588.5,194.5 588.5,195.5C 587.662,195.842 587.328,196.508 587.5,197.5C 586.637,198.463 585.97,198.463 585.5,197.5C 586.548,195.544 587.048,193.544 587,191.5C 581.201,192.232 575.368,192.899 569.5,193.5C 570.855,187.411 572.522,181.411 574.5,175.5 Z"></path></g><g><path style="opacity:1" fill="#14235d" d="M 348.5,179.5 C 347.166,184.836 345.833,190.169 344.5,195.5C 343.596,194.791 343.263,193.791 343.5,192.5C 338.167,192.5 332.833,192.5 327.5,192.5C 327.5,191.167 327.5,189.833 327.5,188.5C 328.055,184.603 329.055,180.937 330.5,177.5C 335.796,176.491 341.129,176.324 346.5,177C 347.756,177.417 348.423,178.25 348.5,179.5 Z"></path></g><g><path style="opacity:1" fill="#13225d" d="M 369.5,174.5 C 369.281,175.675 369.614,176.675 370.5,177.5C 375.031,176.189 379.531,176.189 384,177.5C 384.708,176.619 385.542,175.953 386.5,175.5C 385.212,182.61 383.545,189.61 381.5,196.5C 380.566,195.432 380.232,194.099 380.5,192.5C 375.105,192.267 369.772,192.6 364.5,193.5C 365.934,187.008 367.601,180.675 369.5,174.5 Z"></path></g><g><path style="opacity:1" fill="#12225d" d="M 445.5,174.5 C 450.42,175.78 455.587,176.447 461,176.5C 466.08,176.488 471.08,176.154 476,175.5C 476.852,176.571 477.685,177.571 478.5,178.5C 479.073,183.847 479.74,189.18 480.5,194.5C 480.167,194.5 479.833,194.5 479.5,194.5C 471.231,193.196 462.731,192.53 454,192.5C 445.269,192.53 436.769,193.196 428.5,194.5C 427.763,192.695 426.763,191.029 425.5,189.5C 428.785,188.676 432.118,188.176 435.5,188C 438.964,183.559 442.298,179.059 445.5,174.5 Z"></path></g><g><path style="opacity:1" fill="#999eb8" d="M 461.5,183.5 C 462.451,184.919 462.784,186.585 462.5,188.5C 459.753,188.813 457.086,188.48 454.5,187.5C 454.624,186.893 454.957,186.56 455.5,186.5C 457.265,187.461 459.265,187.795 461.5,187.5C 461.5,186.167 461.5,184.833 461.5,183.5 Z"></path></g><g><path style="opacity:1" fill="#f2f3f6" d="M 461.5,183.5 C 461.5,184.833 461.5,186.167 461.5,187.5C 459.265,187.795 457.265,187.461 455.5,186.5C 456.912,184.02 458.578,181.687 460.5,179.5C 461.429,180.689 461.762,182.022 461.5,183.5 Z"></path></g><g><path style="opacity:1" fill="#12205c" d="M 313.5,174.5 C 313.5,175.167 313.5,175.833 313.5,176.5C 311.634,182.766 309.968,189.1 308.5,195.5C 307.637,196.463 306.97,196.463 306.5,195.5C 307.752,193.265 308.252,190.931 308,188.5C 303.667,189.833 299.333,189.833 295,188.5C 294.187,190.436 293.687,192.436 293.5,194.5C 292.596,193.791 292.263,192.791 292.5,191.5C 293.367,186.363 294.701,181.363 296.5,176.5C 301.43,176.197 306.263,176.531 311,177.5C 311.852,176.429 312.685,175.429 313.5,174.5 Z"></path></g><g><path style="opacity:1" fill="#14225c" d="M 208.5,175.5 C 208.833,175.5 209.167,175.5 209.5,175.5C 210.964,181.748 211.964,188.081 212.5,194.5C 211.069,194.119 210.236,193.119 210,191.5C 193.564,192.16 177.064,192.827 160.5,193.5C 161.705,194.995 161.705,196.328 160.5,197.5C 159.358,194.741 158.024,192.074 156.5,189.5C 160.5,188.833 164.5,188.167 168.5,187.5C 169.943,184.923 171.61,182.59 173.5,180.5C 178.836,182.469 184.17,183.136 189.5,182.5C 189.267,184.062 188.6,185.395 187.5,186.5C 186.957,186.56 186.624,186.893 186.5,187.5C 189.086,188.48 191.753,188.813 194.5,188.5C 194.795,186.265 194.461,184.265 193.5,182.5C 193.5,181.5 193.5,180.5 193.5,179.5C 195.048,179.821 195.715,180.821 195.5,182.5C 199.833,182.5 204.167,182.5 208.5,182.5C 208.5,180.167 208.5,177.833 208.5,175.5 Z"></path></g><g><path style="opacity:1" fill="#949ab5" d="M 193.5,182.5 C 194.461,184.265 194.795,186.265 194.5,188.5C 191.753,188.813 189.086,188.48 186.5,187.5C 186.624,186.893 186.957,186.56 187.5,186.5C 189.265,187.461 191.265,187.795 193.5,187.5C 193.5,185.833 193.5,184.167 193.5,182.5 Z"></path></g><g><path style="opacity:1" fill="#13225c" d="M 524.5,173.5 C 524.833,173.5 525.167,173.5 525.5,173.5C 525.835,178.177 526.335,182.844 527,187.5C 529.717,184.29 532.217,180.956 534.5,177.5C 543.57,179.431 552.903,180.097 562.5,179.5C 562.629,177.784 562.962,176.117 563.5,174.5C 563.833,174.5 564.167,174.5 564.5,174.5C 562.814,182.579 560.814,190.579 558.5,198.5C 557.755,196.329 557.588,193.995 558,191.5C 552.917,192.307 547.75,192.807 542.5,193C 542,193.5 541.5,194 541,194.5C 533.568,193.184 525.902,192.518 518,192.5C 510.098,192.518 502.432,193.184 495,194.5C 494.517,193.552 494.351,192.552 494.5,191.5C 494.926,187.573 495.926,183.907 497.5,180.5C 506.5,180.5 515.5,180.5 524.5,180.5C 524.5,178.167 524.5,175.833 524.5,173.5 Z"></path></g><g><path style="opacity:1" fill="#0f2f71" d="M 212.5,194.5 C 213.473,196.948 213.806,199.615 213.5,202.5C 212.124,202.253 211.29,200.919 211,198.5C 194.244,199.492 177.411,199.825 160.5,199.5C 160.5,198.833 160.5,198.167 160.5,197.5C 161.705,196.328 161.705,194.995 160.5,193.5C 177.064,192.827 193.564,192.16 210,191.5C 210.236,193.119 211.069,194.119 212.5,194.5 Z"></path></g><g><path style="opacity:1" fill="#122c6c" d="M 227.5,185.5 C 227.351,186.552 227.517,187.552 228,188.5C 235.934,187.183 244.1,186.516 252.5,186.5C 260.5,186.667 268.5,186.833 276.5,187C 275.262,187.69 275.262,188.19 276.5,188.5C 276.016,191.716 276.016,195.049 276.5,198.5C 276.279,201.097 275.779,201.097 275,198.5C 269.667,199.833 264.333,199.833 259,198.5C 258.79,200.058 258.29,201.391 257.5,202.5C 256.781,200.236 256.448,197.903 256.5,195.5C 252.116,195.174 247.783,195.508 243.5,196.5C 242.675,198.801 242.008,201.135 241.5,203.5C 240.596,202.791 240.263,201.791 240.5,200.5C 235.167,200.5 229.833,200.5 224.5,200.5C 224.5,199.167 224.5,197.833 224.5,196.5C 225.134,192.627 226.134,188.961 227.5,185.5 Z"></path></g><g><path style="opacity:1" fill="#123378" d="M 494.5,191.5 C 494.351,192.552 494.517,193.552 495,194.5C 502.432,193.184 510.098,192.518 518,192.5C 525.902,192.518 533.568,193.184 541,194.5C 541.5,194 542,193.5 542.5,193C 547.75,192.807 552.917,192.307 558,191.5C 557.588,193.995 557.755,196.329 558.5,198.5C 558.253,201.854 557.253,204.854 555.5,207.5C 549.779,206.391 544.112,206.058 538.5,206.5C 539.512,202.791 540.346,199.124 541,195.5C 538.723,199.08 536.223,202.414 533.5,205.5C 530.742,204.182 527.576,203.515 524,203.5C 520.833,203.833 517.667,204.167 514.5,204.5C 513.691,206.071 513.357,207.738 513.5,209.5C 512.668,204.932 511.668,200.265 510.5,195.5C 509.92,198.447 508.92,201.114 507.5,203.5C 507.5,202.5 507.5,201.5 507.5,200.5C 502.786,200.173 498.12,200.507 493.5,201.5C 493,202.5 492.5,203.5 492,204.5C 491.536,203.906 491.369,203.239 491.5,202.5C 492.134,198.627 493.134,194.961 494.5,191.5 Z"></path></g><g><path style="opacity:1" fill="#123275" d="M 308.5,195.5 C 313.65,196.651 318.984,196.817 324.5,196C 325.812,193.52 326.812,191.02 327.5,188.5C 327.5,189.833 327.5,191.167 327.5,192.5C 332.833,192.5 338.167,192.5 343.5,192.5C 343.263,193.791 343.596,194.791 344.5,195.5C 344.113,198.206 343.113,200.539 341.5,202.5C 341.5,201.5 341.5,200.5 341.5,199.5C 333.117,199.534 324.784,198.867 316.5,197.5C 308.215,199.034 299.881,199.534 291.5,199C 292.267,197.53 292.933,196.03 293.5,194.5C 293.687,192.436 294.187,190.436 295,188.5C 299.333,189.833 303.667,189.833 308,188.5C 308.252,190.931 307.752,193.265 306.5,195.5C 306.97,196.463 307.637,196.463 308.5,195.5 Z"></path></g><g><path style="opacity:1" fill="#0e3074" d="M 479.5,194.5 C 479.5,196.167 479.5,197.833 479.5,199.5C 463.256,199.825 447.089,199.491 431,198.5C 430,199.5 429,200.5 428,201.5C 427.601,201.272 427.435,200.938 427.5,200.5C 429.531,198.751 429.865,196.751 428.5,194.5C 436.769,193.196 445.269,192.53 454,192.5C 462.731,192.53 471.231,193.196 479.5,194.5 Z"></path></g><g><path style="opacity:1" fill="#aebbd4" d="M 588.5,195.5 C 597.775,197.473 607.442,198.14 617.5,197.5C 617.737,198.791 617.404,199.791 616.5,200.5C 607.043,198.843 597.376,197.843 587.5,197.5C 587.328,196.508 587.662,195.842 588.5,195.5 Z"></path></g><g><path style="opacity:1" fill="#113379" d="M 114.5,190.5 C 114.167,192.5 113.833,194.5 113.5,196.5C 123.839,196.334 134.172,196.5 144.5,197C 147.408,199.07 148.074,201.57 146.5,204.5C 146.5,203.167 146.5,201.833 146.5,200.5C 129.497,200.333 112.497,200.5 95.5,201C 94.9341,201.995 94.2674,202.828 93.5,203.5C 92.9033,203.265 92.5699,202.765 92.5,202C 93.0716,198.579 94.0716,195.413 95.5,192.5C 95.369,193.239 95.5357,193.906 96,194.5C 96.5,193.5 97,192.5 97.5,191.5C 103.128,190.505 108.794,190.171 114.5,190.5 Z"></path></g><g><path style="opacity:1" fill="#1d408d" d="M 213.5,202.5 C 214.903,205.909 215.57,209.575 215.5,213.5C 209.167,213.5 202.833,213.5 196.5,213.5C 195.886,209.865 195.552,206.198 195.5,202.5C 189.491,202.334 183.491,202.501 177.5,203C 175.512,206.501 173.178,209.668 170.5,212.5C 163.978,212.823 157.645,212.49 151.5,211.5C 154.5,207.5 157.5,203.5 160.5,199.5C 177.411,199.825 194.244,199.492 211,198.5C 211.29,200.919 212.124,202.253 213.5,202.5 Z"></path></g><g><path style="opacity:1" fill="#113984" d="M 292.5,191.5 C 292.263,192.791 292.596,193.791 293.5,194.5C 292.933,196.03 292.267,197.53 291.5,199C 299.881,199.534 308.215,199.034 316.5,197.5C 324.784,198.867 333.117,199.534 341.5,199.5C 341.5,200.5 341.5,201.5 341.5,202.5C 339.766,205.2 337.432,207.2 334.5,208.5C 333.262,208.19 333.262,207.69 334.5,207C 319.925,206.825 305.425,206.325 291,205.5C 290.085,206.328 289.419,207.328 289,208.5C 288.536,207.906 288.369,207.239 288.5,206.5C 289.096,201.201 290.429,196.201 292.5,191.5 Z"></path></g><g><path style="opacity:1" fill="#12357b" d="M 419.5,195.5 C 418.79,197.746 418.29,200.08 418,202.5C 417.292,203.381 416.458,204.047 415.5,204.5C 415.389,203.883 415.056,203.383 414.5,203C 396.933,203.133 379.599,202.3 362.5,200.5C 362.767,198.035 363.434,195.701 364.5,193.5C 369.772,192.6 375.105,192.267 380.5,192.5C 380.232,194.099 380.566,195.432 381.5,196.5C 387.833,196.5 394.167,196.5 400.5,196.5C 400.366,194.708 400.699,193.042 401.5,191.5C 407.106,190.593 412.773,190.26 418.5,190.5C 418.216,192.415 418.549,194.081 419.5,195.5 Z"></path></g><g><path style="opacity:1" fill="#1e418e" d="M 479.5,194.5 C 479.833,194.5 480.167,194.5 480.5,194.5C 482.139,200.699 483.139,207.033 483.5,213.5C 477.167,213.5 470.833,213.5 464.5,213.5C 463.886,209.865 463.552,206.198 463.5,202.5C 457.491,202.334 451.491,202.501 445.5,203C 443.512,206.501 441.178,209.668 438.5,212.5C 431.978,212.823 425.645,212.49 419.5,211.5C 422.167,207.833 424.833,204.167 427.5,200.5C 427.435,200.938 427.601,201.272 428,201.5C 429,200.5 430,199.5 431,198.5C 447.089,199.491 463.256,199.825 479.5,199.5C 479.5,197.833 479.5,196.167 479.5,194.5 Z"></path></g><g><path style="opacity:1" fill="#103782" d="M 587.5,197.5 C 597.376,197.843 607.043,198.843 616.5,200.5C 615.21,203.642 614.21,206.975 613.5,210.5C 612.566,209.432 612.232,208.099 612.5,206.5C 597.167,206.5 581.833,206.5 566.5,206.5C 566.737,207.791 566.404,208.791 565.5,209.5C 566.523,204.073 567.857,198.74 569.5,193.5C 575.368,192.899 581.201,192.232 587,191.5C 587.048,193.544 586.548,195.544 585.5,197.5C 585.97,198.463 586.637,198.463 587.5,197.5 Z"></path></g><g><path style="opacity:1" fill="#123d8d" d="M 276.5,198.5 C 278.023,202.596 279.023,206.929 279.5,211.5C 273.021,212.491 266.354,212.824 259.5,212.5C 258.518,209.237 257.851,205.903 257.5,202.5C 258.29,201.391 258.79,200.058 259,198.5C 264.333,199.833 269.667,199.833 275,198.5C 275.779,201.097 276.279,201.097 276.5,198.5 Z"></path></g><g><path style="opacity:1" fill="#103e8e" d="M 362.5,200.5 C 379.599,202.3 396.933,203.133 414.5,203C 415.056,203.383 415.389,203.883 415.5,204.5C 412.044,206.783 408.71,209.283 405.5,212C 393.153,212.833 380.82,212.666 368.5,211.5C 365.595,208.278 363.595,204.611 362.5,200.5 Z"></path></g><g><path style="opacity:1" fill="#164395" d="M 555.5,207.5 C 555.784,209.415 555.451,211.081 554.5,212.5C 548.642,212.822 542.975,212.489 537.5,211.5C 537.366,209.708 537.699,208.042 538.5,206.5C 544.112,206.058 549.779,206.391 555.5,207.5 Z"></path></g><g><path style="opacity:1" fill="#123e90" d="M 224.5,196.5 C 224.5,197.833 224.5,199.167 224.5,200.5C 229.833,200.5 235.167,200.5 240.5,200.5C 240.263,201.791 240.596,202.791 241.5,203.5C 240.833,206.5 240.167,209.5 239.5,212.5C 232.978,212.823 226.645,212.49 220.5,211.5C 221.389,206.272 222.722,201.272 224.5,196.5 Z"></path></g><g><path style="opacity:1" fill="#274b9b" d="M 334.5,208.5 C 332.906,209.983 331.24,211.483 329.5,213C 315.155,213.833 300.822,213.666 286.5,212.5C 287.05,210.343 287.717,208.343 288.5,206.5C 288.369,207.239 288.536,207.906 289,208.5C 289.419,207.328 290.085,206.328 291,205.5C 305.425,206.325 319.925,206.825 334.5,207C 333.262,207.69 333.262,208.19 334.5,208.5 Z"></path></g><g><path style="opacity:1" fill="#153f91" d="M 507.5,203.5 C 507.58,206.781 506.913,209.781 505.5,212.5C 499.729,213.113 494.396,212.446 489.5,210.5C 489.565,207.572 490.232,204.905 491.5,202.5C 491.369,203.239 491.536,203.906 492,204.5C 492.5,203.5 493,202.5 493.5,201.5C 498.12,200.507 502.786,200.173 507.5,200.5C 507.5,201.5 507.5,202.5 507.5,203.5 Z"></path></g><g><path style="opacity:1" fill="#1f4696" d="M 533.5,205.5 C 532.055,208.118 530.389,210.618 528.5,213C 523.511,213.499 518.511,213.666 513.5,213.5C 513.5,212.167 513.5,210.833 513.5,209.5C 513.357,207.738 513.691,206.071 514.5,204.5C 517.667,204.167 520.833,203.833 524,203.5C 527.576,203.515 530.742,204.182 533.5,205.5 Z"></path></g><g><path style="opacity:1" fill="#1e4594" d="M 146.5,204.5 C 146.127,207.574 145.461,210.574 144.5,213.5C 129.485,213.833 114.485,213.499 99.5,212.5C 97.4742,209.482 95.4742,206.482 93.5,203.5C 94.2674,202.828 94.9341,201.995 95.5,201C 112.497,200.5 129.497,200.333 146.5,200.5C 146.5,201.833 146.5,203.167 146.5,204.5 Z"></path></g><g><path style="opacity:1" fill="#274c9b" d="M 613.5,210.5 C 613.5,211.5 613.5,212.5 613.5,213.5C 597.153,213.833 580.82,213.499 564.5,212.5C 565.127,211.583 565.461,210.583 565.5,209.5C 566.404,208.791 566.737,207.791 566.5,206.5C 581.833,206.5 597.167,206.5 612.5,206.5C 612.232,208.099 612.566,209.432 613.5,210.5 Z"></path></g><g><path style="opacity:1" fill="#7b95c5" d="M 151.5,211.5 C 157.645,212.49 163.978,212.823 170.5,212.5C 163.989,213.818 157.322,213.818 150.5,212.5C 150.624,211.893 150.957,211.56 151.5,211.5 Z"></path></g><g><path style="opacity:1" fill="#7f99c7" d="M 220.5,211.5 C 226.645,212.49 232.978,212.823 239.5,212.5C 232.989,213.818 226.322,213.818 219.5,212.5C 219.624,211.893 219.957,211.56 220.5,211.5 Z"></path></g><g><path style="opacity:1" fill="#7c96c5" d="M 279.5,211.5 C 280.043,211.56 280.376,211.893 280.5,212.5C 273.344,213.819 266.344,213.819 259.5,212.5C 266.354,212.824 273.021,212.491 279.5,211.5 Z"></path></g><g><path style="opacity:1" fill="#7a95c5" d="M 419.5,211.5 C 425.645,212.49 431.978,212.823 438.5,212.5C 431.989,213.818 425.322,213.818 418.5,212.5C 418.624,211.893 418.957,211.56 419.5,211.5 Z"></path></g><g><path style="opacity:1" fill="#7893c3" d="M 489.5,210.5 C 494.396,212.446 499.729,213.113 505.5,212.5C 500.025,213.489 494.358,213.822 488.5,213.5C 488.263,212.209 488.596,211.209 489.5,210.5 Z"></path></g><g><path style="opacity:1" fill="#7e98c6" d="M 537.5,211.5 C 542.975,212.489 548.642,212.822 554.5,212.5C 548.654,213.817 542.654,213.817 536.5,212.5C 536.624,211.893 536.957,211.56 537.5,211.5 Z"></path></g><g><path style="opacity:0.459" fill="#fefffe" d="M 339.5,216.5 C 346.2,216.17 352.866,216.503 359.5,217.5C 352.524,218.664 345.524,218.831 338.5,218C 339.056,217.617 339.389,217.117 339.5,216.5 Z"></path></g><g><path style="opacity:0.464" fill="#fefffe" d="M 461.5,216.5 C 458.572,217.82 455.239,218.486 451.5,218.5C 448.167,218.333 444.833,218.167 441.5,218C 447.988,216.542 454.655,216.042 461.5,216.5 Z"></path></g></svg>